<svg xmlns="http://www.w3.org/2000/svg" xmlns:xlink="http://www.w3.org/1999/xlink" xmlns:lucid="lucid" width="1399" height="1070"><g transform="translate(-62 -128)" lucid:page-tab-id="0_0"><path d="M0 0h1760v1360H0z" fill="#fff"/><path d="M80 188a8 8 0 0 1 8-8h1284a8 8 0 0 1 8 8v364a8 8 0 0 1-8 8H88a8 8 0 0 1-8-8z" stroke="#3a414a" fill="#fff"/><path d="M808 140c17.67 0 32 17.9 32 40s-14.33 40-32 40h-96c-17.67 0-32-17.9-32-40s14.33-40 32-40z" stroke="#000" stroke-opacity="0" fill="#ff8f8f"/><use xlink:href="#a" transform="matrix(1,0,0,1,685,145) translate(40.49382716049389 26.11111111111113)"/><use xlink:href="#b" transform="matrix(1,0,0,1,685,145) translate(8.549382716049521 52.77777777777774)"/><path d="M113.14 323.73A10.4 10.4 0 0 1 123.2 316H272a6.15 6.15 0 0 1 5.94 7.73l-31.08 116.54A10.4 10.4 0 0 1 236.8 448H88a6.15 6.15 0 0 1-5.94-7.73z" stroke="#282c33" fill="#ff8f8f"/><use xlink:href="#c" transform="matrix(1,0,0,1,85,321.00000000000006) translate(21.018518518518675 65.44444444444443)"/><use xlink:href="#d" transform="matrix(1,0,0,1,85,321.00000000000006) translate(76.57407407407412 65.44444444444443)"/><use xlink:href="#e" transform="matrix(1,0,0,1,85,321.00000000000006) translate(129.5987654320987 65.44444444444443)"/><path d="M300 320a8 8 0 0 1 8-8h144a8 8 0 0 1 8 8v120a8 8 0 0 1-8 8H308a8 8 0 0 1-8-8z" stroke="#3a414a" fill="#ff8f8f"/><use xlink:href="#f" transform="matrix(1,0,0,1,312,324.0000000000001) translate(18.154320987654422 33.77777777777782)"/><use xlink:href="#g" transform="matrix(1,0,0,1,312,324.0000000000001) translate(45.1913580246914 60.444444444444436)"/><use xlink:href="#h" transform="matrix(1,0,0,1,312,324.0000000000001) translate(36.17901234567907 87.11111111111106)"/><path d="M520 309.33a8 8 0 0 1 8-8h144a8 8 0 0 1 8 8v141.34a8 8 0 0 1-8 8H528a8 8 0 0 1-8-8z" stroke="#3a414a" fill="#ff8f8f"/><use xlink:href="#i" transform="matrix(1,0,0,1,532,313.3333333333335) translate(24.203703703703795 18.1111111111112)"/><use xlink:href="#j" transform="matrix(1,0,0,1,532,313.3333333333335) translate(44.57407407407412 44.777777777777814)"/><use xlink:href="#k" transform="matrix(1,0,0,1,532,313.3333333333335) translate(14.60493827160505 71.44444444444443)"/><use xlink:href="#l" transform="matrix(1,0,0,1,532,313.3333333333335) translate(106.58024691358017 71.44444444444443)"/><use xlink:href="#m" transform="matrix(1,0,0,1,532,313.3333333333335) translate(24.327160493827243 98.11111111111104)"/><use xlink:href="#n" transform="matrix(1,0,0,1,532,313.3333333333335) translate(73.5864197530864 98.11111111111104)"/><use xlink:href="#o" transform="matrix(1,0,0,1,532,313.3333333333335) translate(27.351851851851933 124.77777777777766)"/><path d="M740 302.67a8 8 0 0 1 8-8h144a8 8 0 0 1 8 8v154.66a8 8 0 0 1-8 8H748a8 8 0 0 1-8-8z" stroke="#3a414a" fill="#ff8f8f"/><use xlink:href="#p" transform="matrix(1,0,0,1,752,306.6666666666668) translate(48.277777777777814 24.6111111111112)"/><use xlink:href="#q" transform="matrix(1,0,0,1,752,306.6666666666668) translate(0.16049382716063576 51.277777777777814)"/><use xlink:href="#r" transform="matrix(1,0,0,1,752,306.6666666666668) translate(117.32098765432089 51.277777777777814)"/><use xlink:href="#s" transform="matrix(1,0,0,1,752,306.6666666666668) translate(12.567901234568012 77.94444444444443)"/><use xlink:href="#n" transform="matrix(1,0,0,1,752,306.6666666666668) translate(85.34567901234564 77.94444444444443)"/><use xlink:href="#t" transform="matrix(1,0,0,1,752,306.6666666666668) translate(43.95679012345684 104.61111111111104)"/><use xlink:href="#u" transform="matrix(1,0,0,1,752,306.6666666666668) translate(13.154320987654437 131.27777777777766)"/><path d="M460.95 380h42.2" stroke="#3a414a" fill="none"/><path d="M460.96 380.5h-.5v-1h.5z" stroke="#3a414a" stroke-width=".05" fill="#3a414a"/><path d="M517.93 380l-14.27 4.64v-9.28z" stroke="#3a414a" fill="#3a414a"/><path d="M680.95 380h42.22" stroke="#3a414a" fill="none"/><path d="M680.96 380.5h-.5v-1h.5z" stroke="#3a414a" stroke-width=".05" fill="#3a414a"/><path d="M737.93 380l-14.26 4.64v-9.28z" stroke="#3a414a" fill="#3a414a"/><path d="M960 328a8 8 0 0 1 8-8h144a8 8 0 0 1 8 8v104a8 8 0 0 1-8 8H968a8 8 0 0 1-8-8z" stroke="#3a414a" fill="#ff8f8f"/><use xlink:href="#v" transform="matrix(1,0,0,1,972,332) translate(26.703703703703788 25.77777777777782)"/><use xlink:href="#w" transform="matrix(1,0,0,1,972,332) translate(5.96296296296309 52.444444444444436)"/><use xlink:href="#n" transform="matrix(1,0,0,1,972,332) translate(91.95061728395056 52.444444444444436)"/><use xlink:href="#x" transform="matrix(1,0,0,1,972,332) translate(27.351851851851933 79.11111111111106)"/><path d="M900.5 380h42.2M900.5 380h-.5" stroke="#3a414a" fill="none"/><path d="M957.48 380l-14.27 4.64v-9.28z" stroke="#3a414a" fill="#3a414a"/><path d="M1180 228.67a8 8 0 0 1 8-8h144a8 8 0 0 1 8 8v114.66a8 8 0 0 1-8 8h-144a8 8 0 0 1-8-8z" stroke="#3a414a" fill="#ff8f8f"/><use xlink:href="#y" transform="matrix(1,0,0,1,1192,232.66666666666677) translate(21.79629629629639 17.944444444444514)"/><use xlink:href="#z" transform="matrix(1,0,0,1,1192,232.66666666666677) translate(22.382716049382807 44.61111111111113)"/><use xlink:href="#A" transform="matrix(1,0,0,1,1192,232.66666666666677) translate(87.75308641975305 44.61111111111113)"/><use xlink:href="#B" transform="matrix(1,0,0,1,1192,232.66666666666677) translate(20.56172839506182 71.27777777777774)"/><use xlink:href="#n" transform="matrix(1,0,0,1,1192,232.66666666666677) translate(77.35185185185183 71.27777777777774)"/><use xlink:href="#C" transform="matrix(1,0,0,1,1192,232.66666666666677) translate(43.95679012345684 97.94444444444436)"/><path d="M1180 382.67a8 8 0 0 1 8-8h144a8 8 0 0 1 8 8v154.66a8 8 0 0 1-8 8h-144a8 8 0 0 1-8-8z" stroke="#3a414a" fill="#ff8f8f"/><use xlink:href="#D" transform="matrix(1,0,0,1,1192,386.6666666666668) translate(23.000000000000092 24.6111111111112)"/><use xlink:href="#E" transform="matrix(1,0,0,1,1192,386.6666666666668) translate(10.006172839506291 51.277777777777814)"/><use xlink:href="#F" transform="matrix(1,0,0,1,1192,386.6666666666668) translate(16.827160493827265 77.94444444444443)"/><use xlink:href="#A" transform="matrix(1,0,0,1,1192,386.6666666666668) translate(93.30864197530859 77.94444444444443)"/><use xlink:href="#B" transform="matrix(1,0,0,1,1192,386.6666666666668) translate(20.56172839506182 104.61111111111104)"/><use xlink:href="#n" transform="matrix(1,0,0,1,1192,386.6666666666668) translate(77.35185185185183 104.61111111111104)"/><use xlink:href="#C" transform="matrix(1,0,0,1,1192,386.6666666666668) translate(43.95679012345684 131.27777777777766)"/><path d="M1120.95 380H1138a12 12 0 0 0 12-12v-70a12 12 0 0 1 12-12h1.16" stroke="#3a414a" fill="none"/><path d="M1120.96 380.5h-.5v-1h.5z" stroke="#3a414a" stroke-width=".05" fill="#3a414a"/><path d="M1177.93 286l-14.27 4.64v-9.28z" stroke="#3a414a" fill="#3a414a"/><path d="M1120.95 380H1138a12 12 0 0 1 12 12v56a12 12 0 0 0 12 12h1.17" stroke="#3a414a" fill="none"/><path d="M1120.96 380.5h-.5v-1h.5z" stroke="#3a414a" stroke-width=".05" fill="#3a414a"/><path d="M1177.93 460l-14.26 4.64v-9.28z" stroke="#3a414a" fill="#3a414a"/><path d="M80 664.48a8 8 0 0 1 8-8h1344a8 8 0 0 1 8 8V1172a8 8 0 0 1-8 8H88a8 8 0 0 1-8-8z" stroke="#3a414a" fill="#fff"/><path d="M808 620c17.67 0 32 17.9 32 40s-14.33 40-32 40h-96c-17.67 0-32-17.9-32-40s14.33-40 32-40z" stroke="#000" stroke-opacity="0" fill="#c3f7c8"/><use xlink:href="#G" transform="matrix(1,0,0,1,685,625) translate(41.75925925925932 26.11111111111113)"/><use xlink:href="#H" transform="matrix(1,0,0,1,685,625) translate(3.4567901234569263 52.77777777777774)"/><path d="M109.94 844.2A10.4 10.4 0 0 1 120 836.5h112a6.15 6.15 0 0 1 5.94 7.73l-27.88 104.55a10.4 10.4 0 0 1-10.06 7.73H88a6.15 6.15 0 0 1-5.94-7.73z" stroke="#282c33" fill="#c3f7c8"/><use xlink:href="#c" transform="matrix(1,0,0,1,85,841.4781095911189) translate(23.796296296296397 46.11111111111113)"/><use xlink:href="#j" transform="matrix(1,0,0,1,85,841.4781095911189) translate(79.35185185185185 46.11111111111113)"/><use xlink:href="#I" transform="matrix(1,0,0,1,85,841.4781095911189) translate(14.660493827160614 72.77777777777774)"/><path d="M260 839.14a8 8 0 0 1 8-8h144a8 8 0 0 1 8 8V953.8a8 8 0 0 1-8 8H268a8 8 0 0 1-8-8z" stroke="#3a414a" fill="#c3f7c8"/><use xlink:href="#J" transform="matrix(1,0,0,1,272,843.1447762577857) translate(22.444444444444535 17.944444444444514)"/><use xlink:href="#K" transform="matrix(1,0,0,1,272,843.1447762577857) translate(77.75308641975306 17.944444444444514)"/><use xlink:href="#L" transform="matrix(1,0,0,1,272,843.1447762577857) translate(13.740740740740854 44.61111111111113)"/><use xlink:href="#l" transform="matrix(1,0,0,1,272,843.1447762577857) translate(107.44444444444437 44.61111111111113)"/><use xlink:href="#M" transform="matrix(1,0,0,1,272,843.1447762577857) translate(10.067901234568012 71.27777777777774)"/><use xlink:href="#N" transform="matrix(1,0,0,1,272,843.1447762577857) translate(56.91975308641977 71.27777777777774)"/><use xlink:href="#O" transform="matrix(1,0,0,1,272,843.1447762577857) translate(43.401234567901284 97.94444444444436)"/><path d="M460 833.8a8 8 0 0 1 8-8h144a8 8 0 0 1 8 8v125.34a8 8 0 0 1-8 8H468a8 8 0 0 1-8-8z" stroke="#3a414a" fill="#c3f7c8"/><use xlink:href="#P" transform="matrix(1,0,0,1,472,837.8114429244524) translate(8.802469135802596 23.444444444444514)"/><use xlink:href="#Q" transform="matrix(1,0,0,1,472,837.8114429244524) translate(93.86419753086415 23.444444444444514)"/><use xlink:href="#R" transform="matrix(1,0,0,1,472,837.8114429244524) translate(35.962962962963026 50.11111111111113)"/><use xlink:href="#S" transform="matrix(1,0,0,1,472,837.8114429244524) translate(24.327160493827243 76.77777777777774)"/><use xlink:href="#n" transform="matrix(1,0,0,1,472,837.8114429244524) translate(73.5864197530864 76.77777777777774)"/><use xlink:href="#o" transform="matrix(1,0,0,1,472,837.8114429244524) translate(27.351851851851933 103.44444444444436)"/><path d="M660 819.14a8 8 0 0 1 8-8h144a8 8 0 0 1 8 8V973.8a8 8 0 0 1-8 8H668a8 8 0 0 1-8-8z" stroke="#3a414a" fill="#c3f7c8"/><g><use xlink:href="#p" transform="matrix(1,0,0,1,672,823.1447762577857) translate(48.277777777777814 24.6111111111112)"/><use xlink:href="#q" transform="matrix(1,0,0,1,672,823.1447762577857) translate(0.16049382716063576 51.277777777777814)"/><use xlink:href="#r" transform="matrix(1,0,0,1,672,823.1447762577857) translate(117.32098765432089 51.277777777777814)"/><use xlink:href="#s" transform="matrix(1,0,0,1,672,823.1447762577857) translate(12.567901234568012 77.94444444444443)"/><use xlink:href="#n" transform="matrix(1,0,0,1,672,823.1447762577857) translate(85.34567901234564 77.94444444444443)"/><use xlink:href="#t" transform="matrix(1,0,0,1,672,823.1447762577857) translate(43.95679012345684 104.61111111111104)"/><use xlink:href="#u" transform="matrix(1,0,0,1,672,823.1447762577857) translate(13.154320987654437 131.27777777777766)"/></g><path d="M860 840.48a8 8 0 0 1 8-8h144a8 8 0 0 1 8 8v112a8 8 0 0 1-8 8H868a8 8 0 0 1-8-8z" stroke="#3a414a" fill="#c3f7c8"/><g><use xlink:href="#v" transform="matrix(1,0,0,1,872,844.478109591119) translate(26.703703703703788 29.77777777777782)"/><use xlink:href="#T" transform="matrix(1,0,0,1,872,844.478109591119) translate(28.092592592592673 56.444444444444436)"/><use xlink:href="#x" transform="matrix(1,0,0,1,872,844.478109591119) translate(27.351851851851933 83.11111111111106)"/></g><path d="M1060 848a8 8 0 0 1 8-8h144a8 8 0 0 1 8 8v104a8 8 0 0 1-8 8h-144a8 8 0 0 1-8-8z" stroke="#3a414a" fill="#c3f7c8"/><g><use xlink:href="#U" transform="matrix(1,0,0,1,1072,852) translate(15.006172839506277 39.11111111111113)"/><use xlink:href="#V" transform="matrix(1,0,0,1,1072,852) translate(59.26543209876545 39.11111111111113)"/><use xlink:href="#W" transform="matrix(1,0,0,1,1072,852) translate(22.444444444444528 65.77777777777774)"/></g><path d="M1260 688a8 8 0 0 1 8-8h144a8 8 0 0 1 8 8v104a8 8 0 0 1-8 8h-144a8 8 0 0 1-8-8z" stroke="#3a414a" fill="#c3f7c8"/><g><use xlink:href="#X" transform="matrix(1,0,0,1,1272,692) translate(21.148148148148245 39.11111111111113)"/><use xlink:href="#Y" transform="matrix(1,0,0,1,1272,692) translate(66.82716049382717 39.11111111111113)"/><use xlink:href="#Z" transform="matrix(1,0,0,1,1272,692) translate(9.388888888889014 65.77777777777774)"/></g><path d="M1260 848a8 8 0 0 1 8-8h144a8 8 0 0 1 8 8v114.67a8 8 0 0 1-8 8h-144a8 8 0 0 1-8-8z" stroke="#3a414a" fill="#c3f7c8"/><g><use xlink:href="#y" transform="matrix(1,0,0,1,1272,852) translate(21.79629629629639 17.944444444444514)"/><use xlink:href="#aa" transform="matrix(1,0,0,1,1272,852) translate(23.617283950617363 44.61111111111113)"/><use xlink:href="#A" transform="matrix(1,0,0,1,1272,852) translate(86.51851851851848 44.61111111111113)"/><use xlink:href="#ab" transform="matrix(1,0,0,1,1272,852) translate(21.79629629629639 71.27777777777774)"/><use xlink:href="#n" transform="matrix(1,0,0,1,1272,852) translate(76.11728395061726 71.27777777777774)"/><use xlink:href="#C" transform="matrix(1,0,0,1,1272,852) translate(43.95679012345684 97.94444444444436)"/></g><path d="M1260 1008a8 8 0 0 1 8-8h144a8 8 0 0 1 8 8v154.67a8 8 0 0 1-8 8h-144a8 8 0 0 1-8-8z" stroke="#3a414a" fill="#c3f7c8"/><g><use xlink:href="#D" transform="matrix(1,0,0,1,1272,1012) translate(23.000000000000092 24.6111111111112)"/><use xlink:href="#E" transform="matrix(1,0,0,1,1272,1012) translate(10.006172839506291 51.277777777777814)"/><use xlink:href="#F" transform="matrix(1,0,0,1,1272,1012) translate(16.827160493827265 77.94444444444443)"/><use xlink:href="#A" transform="matrix(1,0,0,1,1272,1012) translate(93.30864197530859 77.94444444444443)"/><use xlink:href="#B" transform="matrix(1,0,0,1,1272,1012) translate(20.56172839506182 104.61111111111104)"/><use xlink:href="#n" transform="matrix(1,0,0,1,1272,1012) translate(77.35185185185183 104.61111111111104)"/><use xlink:href="#t" transform="matrix(1,0,0,1,1272,1012) translate(43.95679012345684 131.27777777777766)"/></g><path d="M1220.95 900h22.2" stroke="#3a414a" fill="none"/><path d="M1220.96 900.5h-.5v-1h.5z" stroke="#3a414a" stroke-width=".05" fill="#3a414a"/><path d="M1257.93 900l-14.27 4.64v-9.28z" stroke="#3a414a" fill="#3a414a"/><path d="M1220.95 900h7.05a12 12 0 0 1 12 12v170.17a3.16 3.16 0 0 0 3.17 3.16" stroke="#3a414a" fill="none"/><path d="M1220.96 900.5h-.5v-1h.5z" stroke="#3a414a" stroke-width=".05" fill="#3a414a"/><path d="M1257.93 1085.33l-14.26 4.64v-9.27z" stroke="#3a414a" fill="#3a414a"/><path d="M1220.95 899.98h7.05a12 12 0 0 0 12-12V743.16a3.16 3.16 0 0 1 3.16-3.16" stroke="#3a414a" fill="none"/><path d="M1220.96 900.48h-.5v-1h.5z" stroke="#3a414a" stroke-width=".05" fill="#3a414a"/><path d="M1257.93 740l-14.27 4.64v-9.28z" stroke="#3a414a" fill="#3a414a"/><path d="M224.96 896.48h18.2" stroke="#3a414a" fill="none"/><path d="M224.98 896.98h-.65l.27-1h.38z" stroke="#3a414a" stroke-width=".05" fill="#3a414a"/><path d="M257.93 896.48l-14.27 4.63v-9.26z" stroke="#3a414a" fill="#3a414a"/><path d="M420.95 896.48h22.2" stroke="#3a414a" fill="none"/><path d="M420.96 896.98h-.5v-1h.5z" stroke="#3a414a" stroke-width=".05" fill="#3a414a"/><path d="M457.93 896.48l-14.27 4.63v-9.26z" stroke="#3a414a" fill="#3a414a"/><path d="M620.95 896.48h22.22" stroke="#3a414a" fill="none"/><path d="M620.96 896.98h-.5v-1h.5z" stroke="#3a414a" stroke-width=".05" fill="#3a414a"/><path d="M657.93 896.48l-14.26 4.63v-9.26z" stroke="#3a414a" fill="#3a414a"/><path d="M820.95 896.48h22.2" stroke="#3a414a" fill="none"/><path d="M820.96 896.98h-.5v-1h.5z" stroke="#3a414a" stroke-width=".05" fill="#3a414a"/><path d="M857.93 896.48l-14.27 4.63v-9.26z" stroke="#3a414a" fill="#3a414a"/><path d="M1020.95 896.48h17.3a1.76 1.76 0 0 1 1.75 1.76 1.76 1.76 0 0 0 1.76 1.76h1.4" stroke="#3a414a" fill="none"/><path d="M1020.96 896.98h-.5v-1h.5z" stroke="#3a414a" stroke-width=".05" fill="#3a414a"/><path d="M1057.93 900l-14.27 4.64v-9.28z" stroke="#3a414a" fill="#3a414a"/><path d="M263.1 383h20.07" stroke="#3a414a" fill="none"/><path d="M263.1 383.5h-.63l.26-1h.38z" stroke="#3a414a" stroke-width=".05" fill="#3a414a"/><path d="M297.93 383l-14.26 4.64v-9.28z" stroke="#3a414a" fill="#3a414a"/><defs><path fill="#282c33" d="M169-182c-1-43-94-46-97-3 18 66 151 10 154 114 3 95-165 93-204 36-6-8-10-19-12-30l50-8c3 46 112 56 116 5-17-69-150-10-154-114-4-87 153-88 188-35 5 8 8 18 10 28" id="ac"/><path fill="#282c33" d="M185-48c-13 30-37 53-82 52C43 2 14-33 14-96s30-98 90-98c62 0 83 45 84 108H66c0 31 8 55 39 56 18 0 30-7 34-22zm-45-69c5-46-57-63-70-21-2 6-4 13-4 21h74" id="ad"/><path fill="#282c33" d="M85 4C-2 5 27-109 22-190h50c7 57-23 150 33 157 60-5 35-97 40-157h50l1 190h-47c-2-12 1-28-3-38-12 25-28 42-61 42" id="ae"/><path fill="#282c33" d="M135-150c-39-12-60 13-60 57V0H25l-1-190h47c2 13-1 29 3 40 6-28 27-53 61-41v41" id="af"/><path fill="#282c33" d="M133-34C117-15 103 5 69 4 32 3 11-16 11-54c-1-60 55-63 116-61 1-26-3-47-28-47-18 1-26 9-28 27l-52-2c7-38 36-58 82-57s74 22 75 68l1 82c-1 14 12 18 25 15v27c-30 8-71 5-69-32zm-48 3c29 0 43-24 42-57-32 0-66-3-65 30 0 17 8 27 23 27" id="ag"/><path fill="#282c33" d="M115-3C79 11 28 4 28-45v-112H4v-33h27l15-45h31v45h36v33H77v99c-1 23 16 31 38 25v30" id="ah"/><g id="a"><use transform="matrix(0.061728395061728274,0,0,0.061728395061728274,0,0)" xlink:href="#ac"/><use transform="matrix(0.061728395061728274,0,0,0.061728395061728274,14.814814814814786,0)" xlink:href="#ad"/><use transform="matrix(0.061728395061728274,0,0,0.061728395061728274,27.16049382716044,0)" xlink:href="#ae"/><use transform="matrix(0.061728395061728274,0,0,0.061728395061728274,40.679012345678935,0)" xlink:href="#af"/><use transform="matrix(0.061728395061728274,0,0,0.061728395061728274,49.320987654320895,0)" xlink:href="#ag"/><use transform="matrix(0.061728395061728274,0,0,0.061728395061728274,61.66666666666655,0)" xlink:href="#ah"/></g><path fill="#282c33" d="M67-93c0 74 22 123 53 168H70C40 30 18-18 18-93s22-123 52-168h50c-32 44-53 94-53 168" id="ai"/><path fill="#282c33" d="M137-138c1-29-70-34-71-4 15 46 118 7 119 86 1 83-164 76-172 9l43-7c4 19 20 25 44 25 33 8 57-30 24-41C81-84 22-81 20-136c-2-80 154-74 161-7" id="aj"/><path fill="#282c33" d="M190-63c-7 42-38 67-86 67-59 0-84-38-90-98-12-110 154-137 174-36l-49 2c-2-19-15-32-35-32-30 0-35 28-38 64-6 74 65 87 74 30" id="ak"/><path fill="#282c33" d="M240-174c0 40-23 61-54 70L253 0h-59l-57-94H76V0H24v-248c93 4 217-23 216 74zM76-134c48-2 112 12 112-38 0-48-66-32-112-35v73" id="al"/><path fill="#282c33" d="M175 0L67-191c6 58 2 128 3 191H24v-248h59L193-55c-6-58-2-129-3-193h46V0h-61" id="am"/><path fill="#282c33" d="M199 0l-22-63H83L61 0H9l90-248h61L250 0h-51zm-33-102l-36-108c-10 38-24 72-36 108h72" id="an"/><path fill="#282c33" d="M14-72v-43h91v43H14" id="ao"/><path fill="#282c33" d="M84 4C32 4 15-41 15-95c0-55 18-99 73-99 29 0 47 12 58 34l2-30h48l-1 265h-49V-32C136-9 114 4 84 4zm21-34c32 0 41-29 41-66 0-36-9-64-40-64-33 0-39 30-40 65 0 43 13 65 39 65" id="ap"/><path fill="#282c33" d="M102-93c0 74-22 123-52 168H0C30 29 54-18 53-93c0-74-22-123-53-168h50c30 45 52 94 52 168" id="aq"/><g id="b"><use transform="matrix(0.061728395061728274,0,0,0.061728395061728274,0,0)" xlink:href="#ai"/><use transform="matrix(0.061728395061728274,0,0,0.061728395061728274,7.345679012345665,0)" xlink:href="#aj"/><use transform="matrix(0.061728395061728274,0,0,0.061728395061728274,19.69135802469132,0)" xlink:href="#ak"/><use transform="matrix(0.061728395061728274,0,0,0.061728395061728274,32.037037037036974,0)" xlink:href="#al"/><use transform="matrix(0.061728395061728274,0,0,0.061728395061728274,48.0246913580246,0)" xlink:href="#am"/><use transform="matrix(0.061728395061728274,0,0,0.061728395061728274,64.01234567901221,0)" xlink:href="#an"/><use transform="matrix(0.061728395061728274,0,0,0.061728395061728274,79.99999999999983,0)" xlink:href="#ao"/><use transform="matrix(0.061728395061728274,0,0,0.061728395061728274,87.3456790123455,0)" xlink:href="#aj"/><use transform="matrix(0.061728395061728274,0,0,0.061728395061728274,99.69135802469116,0)" xlink:href="#ad"/><use transform="matrix(0.061728395061728274,0,0,0.061728395061728274,112.03703703703681,0)" xlink:href="#ap"/><use transform="matrix(0.061728395061728274,0,0,0.061728395061728274,125.5555555555553,0)" xlink:href="#aq"/></g><path fill="#282c33" d="M30 0v-248h33v221h125V0H30" id="ar"/><path fill="#282c33" d="M100-194c62-1 85 37 85 99 1 63-27 99-86 99S16-35 15-95c0-66 28-99 85-99zM99-20c44 1 53-31 53-75 0-43-8-75-51-75s-53 32-53 75 10 74 51 75" id="as"/><path fill="#282c33" d="M141-36C126-15 110 5 73 4 37 3 15-17 15-53c-1-64 63-63 125-63 3-35-9-54-41-54-24 1-41 7-42 31l-33-3c5-37 33-52 76-52 45 0 72 20 72 64v82c-1 20 7 32 28 27v20c-31 9-61-2-59-35zM48-53c0 20 12 33 32 33 41-3 63-29 60-74-43 2-92-5-92 41" id="at"/><path fill="#282c33" d="M85-194c31 0 48 13 60 33l-1-100h32l1 261h-30c-2-10 0-23-3-31C134-8 116 4 85 4 32 4 16-35 15-94c0-66 23-100 70-100zm9 24c-40 0-46 34-46 75 0 40 6 74 45 74 42 0 51-32 51-76 0-42-9-74-50-73" id="au"/><g id="c"><use transform="matrix(0.061728395061728274,0,0,0.061728395061728274,0,0)" xlink:href="#ar"/><use transform="matrix(0.061728395061728274,0,0,0.061728395061728274,12.345679012345654,0)" xlink:href="#as"/><use transform="matrix(0.061728395061728274,0,0,0.061728395061728274,24.691358024691308,0)" xlink:href="#at"/><use transform="matrix(0.061728395061728274,0,0,0.061728395061728274,37.03703703703696,0)" xlink:href="#au"/></g><path fill="#282c33" d="M30-248c118-7 216 8 213 122C240-48 200 0 122 0H30v-248zM63-27c89 8 146-16 146-99s-60-101-146-95v194" id="av"/><path fill="#282c33" d="M59-47c-2 24 18 29 38 22v24C64 9 27 4 27-40v-127H5v-23h24l9-43h21v43h35v23H59v120" id="aw"/><g id="d"><use transform="matrix(0.061728395061728274,0,0,0.061728395061728274,0,0)" xlink:href="#av"/><use transform="matrix(0.061728395061728274,0,0,0.061728395061728274,15.987654320987623,0)" xlink:href="#at"/><use transform="matrix(0.061728395061728274,0,0,0.061728395061728274,28.33333333333328,0)" xlink:href="#aw"/><use transform="matrix(0.061728395061728274,0,0,0.061728395061728274,34.50617283950611,0)" xlink:href="#at"/></g><path fill="#282c33" d="M87 75C49 33 22-17 22-94c0-76 28-126 65-167h31c-38 41-64 92-64 168S80 34 118 75H87" id="ax"/><path fill="#282c33" d="M106-169C34-169 62-67 57 0H25v-261h32l-1 103c12-21 28-36 61-36 89 0 53 116 60 194h-32v-121c2-32-8-49-39-48" id="ay"/><path fill="#282c33" d="M54-142c48-35 137-8 131 61C196 18 31 33 14-55l32-4c7 23 22 37 52 37 35-1 51-22 54-58 4-55-73-65-99-34H22l8-134h141v27H59" id="az"/><path fill="#282c33" d="M33-261c38 41 65 92 65 168S71 34 33 75H2C39 34 66-17 66-93S39-220 2-261h31" id="aA"/><g id="e"><use transform="matrix(0.061728395061728274,0,0,0.061728395061728274,0,0)" xlink:href="#ax"/><use transform="matrix(0.061728395061728274,0,0,0.061728395061728274,7.345679012345665,0)" xlink:href="#ay"/><use transform="matrix(0.061728395061728274,0,0,0.061728395061728274,19.69135802469132,0)" xlink:href="#az"/><use transform="matrix(0.061728395061728274,0,0,0.061728395061728274,32.037037037036974,0)" xlink:href="#aA"/></g><path fill="#282c33" d="M190 0L58-211 59 0H30v-248h39L202-35l-2-213h31V0h-41" id="aB"/><path fill="#282c33" d="M114-163C36-179 61-72 57 0H25l-1-190h30c1 12-1 29 2 39 6-27 23-49 58-41v29" id="aC"/><path fill="#282c33" d="M210-169c-67 3-38 105-44 169h-31v-121c0-29-5-50-35-48C34-165 62-65 56 0H25l-1-190h30c1 10-1 24 2 32 10-44 99-50 107 0 11-21 27-35 58-36 85-2 47 119 55 194h-31v-121c0-29-5-49-35-48" id="aD"/><path fill="#282c33" d="M24 0v-261h32V0H24" id="aE"/><path fill="#282c33" d="M24-231v-30h32v30H24zM24 0v-190h32V0H24" id="aF"/><path fill="#282c33" d="M9 0v-24l116-142H16v-24h144v24L44-24h123V0H9" id="aG"/><path fill="#282c33" d="M100-194c63 0 86 42 84 106H49c0 40 14 67 53 68 26 1 43-12 49-29l28 8c-11 28-37 45-77 45C44 4 14-33 15-96c1-61 26-98 85-98zm52 81c6-60-76-77-97-28-3 7-6 17-6 28h103" id="aH"/><g id="f"><use transform="matrix(0.061728395061728274,0,0,0.061728395061728274,0,0)" xlink:href="#aB"/><use transform="matrix(0.061728395061728274,0,0,0.061728395061728274,15.987654320987623,0)" xlink:href="#as"/><use transform="matrix(0.061728395061728274,0,0,0.061728395061728274,28.33333333333328,0)" xlink:href="#aC"/><use transform="matrix(0.061728395061728274,0,0,0.061728395061728274,35.67901234567894,0)" xlink:href="#aD"/><use transform="matrix(0.061728395061728274,0,0,0.061728395061728274,54.1358024691357,0)" xlink:href="#at"/><use transform="matrix(0.061728395061728274,0,0,0.061728395061728274,66.48148148148135,0)" xlink:href="#aE"/><use transform="matrix(0.061728395061728274,0,0,0.061728395061728274,71.35802469135788,0)" xlink:href="#aF"/><use transform="matrix(0.061728395061728274,0,0,0.061728395061728274,76.23456790123441,0)" xlink:href="#aG"/><use transform="matrix(0.061728395061728274,0,0,0.061728395061728274,87.3456790123455,0)" xlink:href="#aH"/></g><path fill="#282c33" d="M30-248c87 1 191-15 191 75 0 78-77 80-158 76V0H30v-248zm33 125c57 0 124 11 124-50 0-59-68-47-124-48v98" id="aI"/><path fill="#282c33" d="M212-179c-10-28-35-45-73-45-59 0-87 40-87 99 0 60 29 101 89 101 43 0 62-24 78-52l27 14C228-24 195 4 139 4 59 4 22-46 18-125c-6-104 99-153 187-111 19 9 31 26 39 46" id="aJ"/><path fill="#282c33" d="M205 0l-28-72H64L36 0H1l101-248h38L239 0h-34zm-38-99l-47-123c-12 45-31 82-46 123h93" id="aK"/><g id="g"><use transform="matrix(0.061728395061728274,0,0,0.061728395061728274,0,0)" xlink:href="#aI"/><use transform="matrix(0.061728395061728274,0,0,0.061728395061728274,14.814814814814786,0)" xlink:href="#aJ"/><use transform="matrix(0.061728395061728274,0,0,0.061728395061728274,30.80246913580241,0)" xlink:href="#aK"/></g><path fill="#282c33" d="M232-93c-1 65-40 97-104 97C67 4 28-28 28-90v-158h33c8 89-33 224 67 224 102 0 64-133 71-224h33v155" id="aL"/><path fill="#282c33" d="M240 0l2-218c-23 76-54 145-80 218h-23L58-218 59 0H30v-248h44l77 211c21-75 51-140 76-211h43V0h-30" id="aM"/><g id="h"><use transform="matrix(0.061728395061728274,0,0,0.061728395061728274,0,0)" xlink:href="#aL"/><use transform="matrix(0.061728395061728274,0,0,0.061728395061728274,15.987654320987623,0)" xlink:href="#aM"/><use transform="matrix(0.061728395061728274,0,0,0.061728395061728274,34.44444444444437,0)" xlink:href="#aK"/><use transform="matrix(0.061728395061728274,0,0,0.061728395061728274,49.25925925925916,0)" xlink:href="#aI"/></g><path fill="#282c33" d="M33 0v-248h34V0H33" id="aN"/><path fill="#282c33" d="M117-194c89-4 53 116 60 194h-32v-121c0-31-8-49-39-48C34-167 62-67 57 0H25l-1-190h30c1 10-1 24 2 32 11-22 29-35 61-36" id="aO"/><path fill="#282c33" d="M177-190C167-65 218 103 67 71c-23-6-38-20-44-43l32-5c15 47 100 32 89-28v-30C133-14 115 1 83 1 29 1 15-40 15-95c0-56 16-97 71-98 29-1 48 16 59 35 1-10 0-23 2-32h30zM94-22c36 0 50-32 50-73 0-42-14-75-50-75-39 0-46 34-46 75s6 73 46 73" id="aP"/><g id="i"><use transform="matrix(0.061728395061728274,0,0,0.061728395061728274,0,0)" xlink:href="#aN"/><use transform="matrix(0.061728395061728274,0,0,0.061728395061728274,6.172839506172827,0)" xlink:href="#aO"/><use transform="matrix(0.061728395061728274,0,0,0.061728395061728274,18.51851851851848,0)" xlink:href="#aw"/><use transform="matrix(0.061728395061728274,0,0,0.061728395061728274,24.691358024691308,0)" xlink:href="#aH"/><use transform="matrix(0.061728395061728274,0,0,0.061728395061728274,37.03703703703696,0)" xlink:href="#aP"/><use transform="matrix(0.061728395061728274,0,0,0.061728395061728274,49.382716049382616,0)" xlink:href="#aC"/><use transform="matrix(0.061728395061728274,0,0,0.061728395061728274,56.72839506172828,0)" xlink:href="#at"/><use transform="matrix(0.061728395061728274,0,0,0.061728395061728274,69.07407407407393,0)" xlink:href="#aw"/><use transform="matrix(0.061728395061728274,0,0,0.061728395061728274,75.24691358024675,0)" xlink:href="#aH"/></g><g id="j"><use transform="matrix(0.061728395061728274,0,0,0.061728395061728274,0,0)" xlink:href="#av"/><use transform="matrix(0.061728395061728274,0,0,0.061728395061728274,15.987654320987623,0)" xlink:href="#at"/><use transform="matrix(0.061728395061728274,0,0,0.061728395061728274,28.33333333333328,0)" xlink:href="#aw"/><use transform="matrix(0.061728395061728274,0,0,0.061728395061728274,34.50617283950611,0)" xlink:href="#at"/></g><path fill="#282c33" d="M127-220V0H93v-220H8v-28h204v28h-85" id="aQ"/><path fill="#282c33" d="M140-251c81 0 123 46 123 126C263-46 219 4 140 4 59 4 17-45 17-125s42-126 123-126zm0 227c63 0 89-41 89-101s-29-99-89-99c-61 0-89 39-89 99S79-25 140-24" id="aR"/><path fill="#282c33" d="M185-189c-5-48-123-54-124 2 14 75 158 14 163 119 3 78-121 87-175 55-17-10-28-26-33-46l33-7c5 56 141 63 141-1 0-78-155-14-162-118-5-82 145-84 179-34 5 7 8 16 11 25" id="aS"/><g id="k"><use transform="matrix(0.061728395061728274,0,0,0.061728395061728274,0,0)" xlink:href="#ax"/><use transform="matrix(0.061728395061728274,0,0,0.061728395061728274,7.345679012345665,0)" xlink:href="#aQ"/><use transform="matrix(0.061728395061728274,0,0,0.061728395061728274,19.197530864197493,0)" xlink:href="#aK"/><use transform="matrix(0.061728395061728274,0,0,0.061728395061728274,34.01234567901228,0)" xlink:href="#ar"/><use transform="matrix(0.061728395061728274,0,0,0.061728395061728274,46.35802469135793,0)" xlink:href="#aR"/><use transform="matrix(0.061728395061728274,0,0,0.061728395061728274,63.64197530864185,0)" xlink:href="#aS"/><use transform="matrix(0.061728395061728274,0,0,0.061728395061728274,78.45679012345663,0)" xlink:href="#aA"/></g><path fill="#282c33" d="M234-2c-28 10-62 0-77-18C117 19 8 12 13-65c3-43 29-61 60-76-25-40-17-114 47-108 35 3 59 15 59 50 0 44-40 53-71 69 14 26 32 50 51 72 14-21 24-43 30-72l26 8c-9 33-21 57-38 82 13 13 33 22 57 15v23zM97-151c25-10 52-18 56-48-1-18-13-29-33-29-42 0-39 50-23 77zM42-66c-3 51 71 58 98 28-20-24-41-51-56-80-23 10-40 24-42 52" id="aT"/><use transform="matrix(0.061728395061728274,0,0,0.061728395061728274,0,0)" xlink:href="#aT" id="l"/><path fill="#282c33" d="M63-220v92h138v28H63V0H30v-248h175v28H63" id="aU"/><g id="m"><use transform="matrix(0.061728395061728274,0,0,0.061728395061728274,0,0)" xlink:href="#aU"/><use transform="matrix(0.061728395061728274,0,0,0.061728395061728274,13.518518518518492,0)" xlink:href="#aF"/><use transform="matrix(0.061728395061728274,0,0,0.061728395061728274,18.395061728395028,0)" xlink:href="#aO"/><use transform="matrix(0.061728395061728274,0,0,0.061728395061728274,30.740740740740684,0)" xlink:href="#au"/></g><g id="n"><use transform="matrix(0.061728395061728274,0,0,0.061728395061728274,0,0)" xlink:href="#aJ"/><use transform="matrix(0.061728395061728274,0,0,0.061728395061728274,15.987654320987623,0)" xlink:href="#aH"/><use transform="matrix(0.061728395061728274,0,0,0.061728395061728274,28.33333333333328,0)" xlink:href="#aE"/><use transform="matrix(0.061728395061728274,0,0,0.061728395061728274,33.209876543209816,0)" xlink:href="#aE"/></g><path fill="#282c33" d="M84 4C-5 8 30-112 23-190h32v120c0 31 7 50 39 49 72-2 45-101 50-169h31l1 190h-30c-1-10 1-25-2-33-11 22-28 36-60 37" id="aV"/><path fill="#282c33" d="M135-143c-3-34-86-38-87 0 15 53 115 12 119 90S17 21 10-45l28-5c4 36 97 45 98 0-10-56-113-15-118-90-4-57 82-63 122-42 12 7 21 19 24 35" id="aW"/><g id="o"><use transform="matrix(0.061728395061728274,0,0,0.061728395061728274,0,0)" xlink:href="#aJ"/><use transform="matrix(0.061728395061728274,0,0,0.061728395061728274,15.987654320987623,0)" xlink:href="#aE"/><use transform="matrix(0.061728395061728274,0,0,0.061728395061728274,20.864197530864157,0)" xlink:href="#aV"/><use transform="matrix(0.061728395061728274,0,0,0.061728395061728274,33.20987654320981,0)" xlink:href="#aW"/><use transform="matrix(0.061728395061728274,0,0,0.061728395061728274,44.3209876543209,0)" xlink:href="#aw"/><use transform="matrix(0.061728395061728274,0,0,0.061728395061728274,50.49382716049373,0)" xlink:href="#aH"/><use transform="matrix(0.061728395061728274,0,0,0.061728395061728274,62.839506172839386,0)" xlink:href="#aC"/><use transform="matrix(0.061728395061728274,0,0,0.061728395061728274,70.18518518518505,0)" xlink:href="#aW"/></g><g id="p"><use transform="matrix(0.061728395061728274,0,0,0.061728395061728274,0,0)" xlink:href="#aL"/><use transform="matrix(0.061728395061728274,0,0,0.061728395061728274,15.987654320987623,0)" xlink:href="#aW"/><use transform="matrix(0.061728395061728274,0,0,0.061728395061728274,27.098765432098713,0)" xlink:href="#aH"/></g><path fill="#282c33" d="M233-177c-1 41-23 64-60 70L243 0h-38l-65-103H63V0H30v-248c88 3 205-21 203 71zM63-129c60-2 137 13 137-47 0-61-80-42-137-45v92" id="aX"/><path fill="#282c33" d="M101-234c-31-9-42 10-38 44h38v23H63V0H32v-167H5v-23h27c-7-52 17-82 69-68v24" id="aY"/><path fill="#282c33" d="M96-169c-40 0-48 33-48 73s9 75 48 75c24 0 41-14 43-38l32 2c-6 37-31 61-74 61-59 0-76-41-82-99-10-93 101-131 147-64 4 7 5 14 7 22l-32 3c-4-21-16-35-41-35" id="aZ"/><path fill="#282c33" d="M155-56V0h-30v-56H8v-25l114-167h33v167h35v25h-35zm-30-156c-27 46-58 90-88 131h88v-131" id="ba"/><g id="q"><use transform="matrix(0.061728395061728274,0,0,0.061728395061728274,0,0)" xlink:href="#aX"/><use transform="matrix(0.061728395061728274,0,0,0.061728395061728274,15.987654320987623,0)" xlink:href="#aH"/><use transform="matrix(0.061728395061728274,0,0,0.061728395061728274,28.33333333333328,0)" xlink:href="#aY"/><use transform="matrix(0.061728395061728274,0,0,0.061728395061728274,34.50617283950611,0)" xlink:href="#aH"/><use transform="matrix(0.061728395061728274,0,0,0.061728395061728274,46.85185185185176,0)" xlink:href="#aC"/><use transform="matrix(0.061728395061728274,0,0,0.061728395061728274,54.197530864197425,0)" xlink:href="#aH"/><use transform="matrix(0.061728395061728274,0,0,0.061728395061728274,66.54320987654307,0)" xlink:href="#aO"/><use transform="matrix(0.061728395061728274,0,0,0.061728395061728274,78.88888888888873,0)" xlink:href="#aZ"/><use transform="matrix(0.061728395061728274,0,0,0.061728395061728274,89.99999999999982,0)" xlink:href="#aH"/><use transform="matrix(0.04320987654320979,0,0,0.04320987654320979,102.34567901234547,-6.22222222222221)" xlink:href="#ba"/></g><g id="r"><use transform="matrix(0.061728395061728274,0,0,0.061728395061728274,0,0)" xlink:href="#aw"/><use transform="matrix(0.061728395061728274,0,0,0.061728395061728274,6.172839506172827,0)" xlink:href="#as"/></g><g id="s"><use transform="matrix(0.061728395061728274,0,0,0.061728395061728274,0,0)" xlink:href="#aK"/><use transform="matrix(0.061728395061728274,0,0,0.061728395061728274,14.814814814814786,0)" xlink:href="#aW"/><use transform="matrix(0.061728395061728274,0,0,0.061728395061728274,25.925925925925874,0)" xlink:href="#aW"/><use transform="matrix(0.061728395061728274,0,0,0.061728395061728274,37.03703703703697,0)" xlink:href="#aF"/><use transform="matrix(0.061728395061728274,0,0,0.061728395061728274,41.9135802469135,0)" xlink:href="#aP"/><use transform="matrix(0.061728395061728274,0,0,0.061728395061728274,54.25925925925915,0)" xlink:href="#aO"/></g><path fill="#282c33" d="M179-190L93 31C79 59 56 82 12 73V49c39 6 53-20 64-50L1-190h34L92-34l54-156h33" id="bb"/><path fill="#282c33" d="M115-194c55 1 70 41 70 98S169 2 115 4C84 4 66-9 55-30l1 105H24l-1-265h31l2 30c10-21 28-34 59-34zm-8 174c40 0 45-34 45-75s-6-73-45-74c-42 0-51 32-51 76 0 43 10 73 51 73" id="bc"/><g id="t"><use transform="matrix(0.061728395061728274,0,0,0.061728395061728274,0,0)" xlink:href="#aQ"/><use transform="matrix(0.061728395061728274,0,0,0.061728395061728274,12.283950617283928,0)" xlink:href="#bb"/><use transform="matrix(0.061728395061728274,0,0,0.061728395061728274,23.395061728395017,0)" xlink:href="#bc"/><use transform="matrix(0.061728395061728274,0,0,0.061728395061728274,35.74074074074067,0)" xlink:href="#aH"/></g><g id="u"><use transform="matrix(0.061728395061728274,0,0,0.061728395061728274,0,0)" xlink:href="#aI"/><use transform="matrix(0.061728395061728274,0,0,0.061728395061728274,14.814814814814786,0)" xlink:href="#aC"/><use transform="matrix(0.061728395061728274,0,0,0.061728395061728274,22.16049382716045,0)" xlink:href="#aH"/><use transform="matrix(0.061728395061728274,0,0,0.061728395061728274,34.50617283950611,0)" xlink:href="#au"/><use transform="matrix(0.061728395061728274,0,0,0.061728395061728274,46.85185185185176,0)" xlink:href="#aF"/><use transform="matrix(0.061728395061728274,0,0,0.061728395061728274,51.72839506172829,0)" xlink:href="#aZ"/><use transform="matrix(0.061728395061728274,0,0,0.061728395061728274,62.83950617283938,0)" xlink:href="#aw"/><use transform="matrix(0.061728395061728274,0,0,0.061728395061728274,69.0123456790122,0)" xlink:href="#aF"/><use transform="matrix(0.061728395061728274,0,0,0.061728395061728274,73.88888888888873,0)" xlink:href="#as"/><use transform="matrix(0.061728395061728274,0,0,0.061728395061728274,86.23456790123439,0)" xlink:href="#aO"/><use transform="matrix(0.061728395061728274,0,0,0.061728395061728274,98.58024691358004,0)" xlink:href="#aW"/></g><path fill="#282c33" d="M108 0H70L1-190h34L89-25l56-165h34" id="bd"/><g id="v"><use transform="matrix(0.061728395061728274,0,0,0.061728395061728274,0,0)" xlink:href="#aX"/><use transform="matrix(0.061728395061728274,0,0,0.061728395061728274,15.987654320987623,0)" xlink:href="#aH"/><use transform="matrix(0.061728395061728274,0,0,0.061728395061728274,28.33333333333328,0)" xlink:href="#aD"/><use transform="matrix(0.061728395061728274,0,0,0.061728395061728274,46.79012345679003,0)" xlink:href="#as"/><use transform="matrix(0.061728395061728274,0,0,0.061728395061728274,59.13580246913568,0)" xlink:href="#bd"/><use transform="matrix(0.061728395061728274,0,0,0.061728395061728274,70.24691358024677,0)" xlink:href="#aH"/></g><path fill="#282c33" d="M109-170H84l-4-78h32zm-65 0H19l-4-78h33" id="be"/><g id="w"><use transform="matrix(0.061728395061728274,0,0,0.061728395061728274,0,0)" xlink:href="#be"/><use transform="matrix(0.061728395061728274,0,0,0.061728395061728274,7.83950617283949,0)" xlink:href="#aM"/><use transform="matrix(0.061728395061728274,0,0,0.061728395061728274,26.29629629629624,0)" xlink:href="#aH"/><use transform="matrix(0.061728395061728274,0,0,0.061728395061728274,38.641975308641896,0)" xlink:href="#aW"/><use transform="matrix(0.061728395061728274,0,0,0.061728395061728274,49.75308641975299,0)" xlink:href="#aW"/><use transform="matrix(0.061728395061728274,0,0,0.061728395061728274,60.864197530864075,0)" xlink:href="#bb"/><use transform="matrix(0.061728395061728274,0,0,0.061728395061728274,71.97530864197516,0)" xlink:href="#be"/></g><g id="x"><use transform="matrix(0.061728395061728274,0,0,0.061728395061728274,0,0)" xlink:href="#aJ"/><use transform="matrix(0.061728395061728274,0,0,0.061728395061728274,15.987654320987623,0)" xlink:href="#aE"/><use transform="matrix(0.061728395061728274,0,0,0.061728395061728274,20.864197530864157,0)" xlink:href="#aV"/><use transform="matrix(0.061728395061728274,0,0,0.061728395061728274,33.20987654320981,0)" xlink:href="#aW"/><use transform="matrix(0.061728395061728274,0,0,0.061728395061728274,44.3209876543209,0)" xlink:href="#aw"/><use transform="matrix(0.061728395061728274,0,0,0.061728395061728274,50.49382716049373,0)" xlink:href="#aH"/><use transform="matrix(0.061728395061728274,0,0,0.061728395061728274,62.839506172839386,0)" xlink:href="#aC"/><use transform="matrix(0.061728395061728274,0,0,0.061728395061728274,70.18518518518505,0)" xlink:href="#aW"/></g><g id="y"><use transform="matrix(0.061728395061728274,0,0,0.061728395061728274,0,0)" xlink:href="#aJ"/><use transform="matrix(0.061728395061728274,0,0,0.061728395061728274,15.987654320987623,0)" xlink:href="#at"/><use transform="matrix(0.061728395061728274,0,0,0.061728395061728274,28.33333333333328,0)" xlink:href="#aE"/><use transform="matrix(0.061728395061728274,0,0,0.061728395061728274,33.209876543209816,0)" xlink:href="#aZ"/><use transform="matrix(0.061728395061728274,0,0,0.061728395061728274,44.3209876543209,0)" xlink:href="#aV"/><use transform="matrix(0.061728395061728274,0,0,0.061728395061728274,56.66666666666656,0)" xlink:href="#aE"/><use transform="matrix(0.061728395061728274,0,0,0.061728395061728274,61.54320987654309,0)" xlink:href="#at"/><use transform="matrix(0.061728395061728274,0,0,0.061728395061728274,73.88888888888874,0)" xlink:href="#aw"/><use transform="matrix(0.061728395061728274,0,0,0.061728395061728274,80.06172839506156,0)" xlink:href="#aH"/></g><path fill="#282c33" d="M30 0v-248h187v28H63v79h144v27H63v87h162V0H30" id="bf"/><path fill="#282c33" d="M143 4C61 4 22-44 18-125c-5-107 100-154 193-111 17 8 29 25 37 43l-32 9c-13-25-37-40-76-40-61 0-88 39-88 99 0 61 29 100 91 101 35 0 62-11 79-27v-45h-74v-28h105v86C228-13 192 4 143 4" id="bg"/><g id="z"><use transform="matrix(0.061728395061728274,0,0,0.061728395061728274,0,0)" xlink:href="#av"/><use transform="matrix(0.061728395061728274,0,0,0.061728395061728274,15.987654320987623,0)" xlink:href="#bf"/><use transform="matrix(0.061728395061728274,0,0,0.061728395061728274,30.80246913580241,0)" xlink:href="#bg"/><use transform="matrix(0.061728395061728274,0,0,0.061728395061728274,48.08641975308633,0)" xlink:href="#aW"/></g><g id="A"><use transform="matrix(0.061728395061728274,0,0,0.061728395061728274,0,0)" xlink:href="#aY"/><use transform="matrix(0.061728395061728274,0,0,0.061728395061728274,6.172839506172827,0)" xlink:href="#as"/><use transform="matrix(0.061728395061728274,0,0,0.061728395061728274,18.51851851851848,0)" xlink:href="#aC"/></g><g id="B"><use transform="matrix(0.061728395061728274,0,0,0.061728395061728274,0,0)" xlink:href="#bf"/><use transform="matrix(0.061728395061728274,0,0,0.061728395061728274,14.814814814814786,0)" xlink:href="#at"/><use transform="matrix(0.061728395061728274,0,0,0.061728395061728274,27.16049382716044,0)" xlink:href="#aZ"/><use transform="matrix(0.061728395061728274,0,0,0.061728395061728274,38.27160493827153,0)" xlink:href="#ay"/></g><g id="C"><use transform="matrix(0.061728395061728274,0,0,0.061728395061728274,0,0)" xlink:href="#aQ"/><use transform="matrix(0.061728395061728274,0,0,0.061728395061728274,12.283950617283928,0)" xlink:href="#bb"/><use transform="matrix(0.061728395061728274,0,0,0.061728395061728274,23.395061728395017,0)" xlink:href="#bc"/><use transform="matrix(0.061728395061728274,0,0,0.061728395061728274,35.74074074074067,0)" xlink:href="#aH"/></g><g id="D"><use transform="matrix(0.061728395061728274,0,0,0.061728395061728274,0,0)" xlink:href="#aJ"/><use transform="matrix(0.061728395061728274,0,0,0.061728395061728274,15.987654320987623,0)" xlink:href="#as"/><use transform="matrix(0.061728395061728274,0,0,0.061728395061728274,28.33333333333328,0)" xlink:href="#aD"/><use transform="matrix(0.061728395061728274,0,0,0.061728395061728274,46.79012345679003,0)" xlink:href="#bc"/><use transform="matrix(0.061728395061728274,0,0,0.061728395061728274,59.13580246913568,0)" xlink:href="#aV"/><use transform="matrix(0.061728395061728274,0,0,0.061728395061728274,71.48148148148134,0)" xlink:href="#aw"/><use transform="matrix(0.061728395061728274,0,0,0.061728395061728274,77.65432098765416,0)" xlink:href="#aH"/></g><path fill="#282c33" d="M115-194c53 0 69 39 70 98 0 66-23 100-70 100C84 3 66-7 56-30L54 0H23l1-261h32v101c10-23 28-34 59-34zm-8 174c40 0 45-34 45-75 0-40-5-75-45-74-42 0-51 32-51 76 0 43 10 73 51 73" id="bh"/><path fill="#282c33" d="M143 0L79-87 56-68V0H24v-261h32v163l83-92h37l-77 82L181 0h-38" id="bi"/><g id="E"><use transform="matrix(0.061728395061728274,0,0,0.061728395061728274,0,0)" xlink:href="#aI"/><use transform="matrix(0.061728395061728274,0,0,0.061728395061728274,14.814814814814786,0)" xlink:href="#aW"/><use transform="matrix(0.061728395061728274,0,0,0.061728395061728274,25.925925925925874,0)" xlink:href="#aH"/><use transform="matrix(0.061728395061728274,0,0,0.061728395061728274,38.27160493827153,0)" xlink:href="#aV"/><use transform="matrix(0.061728395061728274,0,0,0.061728395061728274,50.617283950617185,0)" xlink:href="#au"/><use transform="matrix(0.061728395061728274,0,0,0.061728395061728274,62.96296296296284,0)" xlink:href="#as"/><use transform="matrix(0.061728395061728274,0,0,0.061728395061728274,75.30864197530849,0)" xlink:href="#bh"/><use transform="matrix(0.061728395061728274,0,0,0.061728395061728274,87.65432098765415,0)" xlink:href="#aV"/><use transform="matrix(0.061728395061728274,0,0,0.061728395061728274,99.9999999999998,0)" xlink:href="#aE"/><use transform="matrix(0.061728395061728274,0,0,0.061728395061728274,104.87654320987633,0)" xlink:href="#bi"/></g><g id="F"><use transform="matrix(0.061728395061728274,0,0,0.061728395061728274,0,0)" xlink:href="#aJ"/><use transform="matrix(0.061728395061728274,0,0,0.061728395061728274,15.987654320987623,0)" xlink:href="#as"/><use transform="matrix(0.061728395061728274,0,0,0.061728395061728274,28.33333333333328,0)" xlink:href="#aV"/><use transform="matrix(0.061728395061728274,0,0,0.061728395061728274,40.679012345678935,0)" xlink:href="#aO"/><use transform="matrix(0.061728395061728274,0,0,0.061728395061728274,53.02469135802459,0)" xlink:href="#aw"/><use transform="matrix(0.061728395061728274,0,0,0.061728395061728274,59.19753086419742,0)" xlink:href="#aW"/></g><path fill="#282c33" d="M114-157C55-157 80-60 75 0H25v-261h50l-1 109c12-26 28-41 61-42 86-1 58 113 63 194h-50c-7-57 23-157-34-157" id="bj"/><g id="G"><use transform="matrix(0.061728395061728274,0,0,0.061728395061728274,0,0)" xlink:href="#an"/><use transform="matrix(0.061728395061728274,0,0,0.061728395061728274,15.987654320987623,0)" xlink:href="#af"/><use transform="matrix(0.061728395061728274,0,0,0.061728395061728274,24.629629629629584,0)" xlink:href="#ak"/><use transform="matrix(0.061728395061728274,0,0,0.061728395061728274,36.97530864197524,0)" xlink:href="#bj"/><use transform="matrix(0.061728395061728274,0,0,0.061728395061728274,50.49382716049373,0)" xlink:href="#al"/></g><path fill="#282c33" d="M136-208V0H84v-208H4v-40h212v40h-80" id="bk"/><path fill="#282c33" d="M67-125c0 53 21 87 73 88 37 1 54-22 65-47l45 17C233-25 199 4 140 4 58 4 20-42 15-125 8-235 124-281 211-232c18 10 29 29 36 50l-46 12c-8-25-30-41-62-41-52 0-71 34-72 86" id="bl"/><g id="H"><use transform="matrix(0.061728395061728274,0,0,0.061728395061728274,0,0)" xlink:href="#ai"/><use transform="matrix(0.061728395061728274,0,0,0.061728395061728274,7.345679012345665,0)" xlink:href="#aj"/><use transform="matrix(0.061728395061728274,0,0,0.061728395061728274,19.69135802469132,0)" xlink:href="#ak"/><use transform="matrix(0.061728395061728274,0,0,0.061728395061728274,32.037037037036974,0)" xlink:href="#an"/><use transform="matrix(0.061728395061728274,0,0,0.061728395061728274,46.35802469135793,0)" xlink:href="#bk"/><use transform="matrix(0.061728395061728274,0,0,0.061728395061728274,58.20987654320976,0)" xlink:href="#an"/><use transform="matrix(0.061728395061728274,0,0,0.061728395061728274,74.19753086419738,0)" xlink:href="#bl"/><use transform="matrix(0.061728395061728274,0,0,0.061728395061728274,90.18518518518499,0)" xlink:href="#ao"/><use transform="matrix(0.061728395061728274,0,0,0.061728395061728274,97.53086419753066,0)" xlink:href="#aj"/><use transform="matrix(0.061728395061728274,0,0,0.061728395061728274,109.87654320987632,0)" xlink:href="#ad"/><use transform="matrix(0.061728395061728274,0,0,0.061728395061728274,122.22222222222197,0)" xlink:href="#ap"/><use transform="matrix(0.061728395061728274,0,0,0.061728395061728274,135.74074074074048,0)" xlink:href="#aq"/></g><g id="I"><use transform="matrix(0.061728395061728274,0,0,0.061728395061728274,0,0)" xlink:href="#ax"/><use transform="matrix(0.061728395061728274,0,0,0.061728395061728274,7.345679012345665,0)" xlink:href="#aU"/><use transform="matrix(0.061728395061728274,0,0,0.061728395061728274,20.864197530864157,0)" xlink:href="#aC"/><use transform="matrix(0.061728395061728274,0,0,0.061728395061728274,28.209876543209823,0)" xlink:href="#at"/><use transform="matrix(0.061728395061728274,0,0,0.061728395061728274,40.55555555555548,0)" xlink:href="#aP"/><use transform="matrix(0.061728395061728274,0,0,0.061728395061728274,52.901234567901135,0)" xlink:href="#aD"/><use transform="matrix(0.061728395061728274,0,0,0.061728395061728274,71.35802469135788,0)" xlink:href="#aH"/><use transform="matrix(0.061728395061728274,0,0,0.061728395061728274,83.70370370370354,0)" xlink:href="#aO"/><use transform="matrix(0.061728395061728274,0,0,0.061728395061728274,96.0493827160492,0)" xlink:href="#aw"/><use transform="matrix(0.061728395061728274,0,0,0.061728395061728274,102.22222222222202,0)" xlink:href="#aW"/><use transform="matrix(0.061728395061728274,0,0,0.061728395061728274,113.3333333333331,0)" xlink:href="#aA"/></g><g id="J"><use transform="matrix(0.061728395061728274,0,0,0.061728395061728274,0,0)" xlink:href="#aU"/><use transform="matrix(0.061728395061728274,0,0,0.061728395061728274,13.518518518518492,0)" xlink:href="#aF"/><use transform="matrix(0.061728395061728274,0,0,0.061728395061728274,18.395061728395028,0)" xlink:href="#aE"/><use transform="matrix(0.061728395061728274,0,0,0.061728395061728274,23.27160493827156,0)" xlink:href="#aw"/><use transform="matrix(0.061728395061728274,0,0,0.061728395061728274,29.44444444444439,0)" xlink:href="#aH"/><use transform="matrix(0.061728395061728274,0,0,0.061728395061728274,41.79012345679004,0)" xlink:href="#aC"/></g><g id="K"><use transform="matrix(0.061728395061728274,0,0,0.061728395061728274,0,0)" xlink:href="#aR"/><use transform="matrix(0.061728395061728274,0,0,0.061728395061728274,17.283950617283917,0)" xlink:href="#aV"/><use transform="matrix(0.061728395061728274,0,0,0.061728395061728274,29.62962962962957,0)" xlink:href="#aw"/></g><g id="L"><use transform="matrix(0.061728395061728274,0,0,0.061728395061728274,0,0)" xlink:href="#av"/><use transform="matrix(0.061728395061728274,0,0,0.061728395061728274,15.987654320987623,0)" xlink:href="#as"/><use transform="matrix(0.061728395061728274,0,0,0.061728395061728274,28.33333333333328,0)" xlink:href="#aV"/><use transform="matrix(0.061728395061728274,0,0,0.061728395061728274,40.679012345678935,0)" xlink:href="#bh"/><use transform="matrix(0.061728395061728274,0,0,0.061728395061728274,53.02469135802459,0)" xlink:href="#aE"/><use transform="matrix(0.061728395061728274,0,0,0.061728395061728274,57.90123456790113,0)" xlink:href="#aH"/><use transform="matrix(0.061728395061728274,0,0,0.061728395061728274,70.24691358024678,0)" xlink:href="#aw"/><use transform="matrix(0.061728395061728274,0,0,0.061728395061728274,76.4197530864196,0)" xlink:href="#aW"/></g><path fill="#282c33" d="M206 0h-36l-40-164L89 0H53L-1-190h32L70-26l43-164h34l41 164 42-164h31" id="bm"/><g id="M"><use transform="matrix(0.061728395061728274,0,0,0.061728395061728274,0,0)" xlink:href="#ar"/><use transform="matrix(0.061728395061728274,0,0,0.061728395061728274,12.345679012345654,0)" xlink:href="#as"/><use transform="matrix(0.061728395061728274,0,0,0.061728395061728274,24.691358024691308,0)" xlink:href="#bm"/></g><path fill="#282c33" d="M140-251c81 0 123 46 123 126C263-53 228-8 163 1c7 30 30 48 69 40v23c-55 16-95-15-103-61C56-3 17-48 17-125c0-80 42-126 123-126zm0 227c63 0 89-41 89-101s-29-99-89-99c-61 0-89 39-89 99S79-25 140-24" id="bn"/><g id="N"><use transform="matrix(0.061728395061728274,0,0,0.061728395061728274,0,0)" xlink:href="#bn"/><use transform="matrix(0.061728395061728274,0,0,0.061728395061728274,17.283950617283917,0)" xlink:href="#aV"/><use transform="matrix(0.061728395061728274,0,0,0.061728395061728274,29.62962962962957,0)" xlink:href="#at"/><use transform="matrix(0.061728395061728274,0,0,0.061728395061728274,41.975308641975225,0)" xlink:href="#aE"/><use transform="matrix(0.061728395061728274,0,0,0.061728395061728274,46.85185185185176,0)" xlink:href="#aF"/><use transform="matrix(0.061728395061728274,0,0,0.061728395061728274,51.72839506172829,0)" xlink:href="#aw"/><use transform="matrix(0.061728395061728274,0,0,0.061728395061728274,57.90123456790112,0)" xlink:href="#bb"/></g><g id="O"><use transform="matrix(0.061728395061728274,0,0,0.061728395061728274,0,0)" xlink:href="#aJ"/><use transform="matrix(0.061728395061728274,0,0,0.061728395061728274,15.987654320987623,0)" xlink:href="#aH"/><use transform="matrix(0.061728395061728274,0,0,0.061728395061728274,28.33333333333328,0)" xlink:href="#aE"/><use transform="matrix(0.061728395061728274,0,0,0.061728395061728274,33.209876543209816,0)" xlink:href="#aE"/><use transform="matrix(0.061728395061728274,0,0,0.061728395061728274,38.086419753086346,0)" xlink:href="#aW"/></g><g id="P"><use transform="matrix(0.061728395061728274,0,0,0.061728395061728274,0,0)" xlink:href="#aN"/><use transform="matrix(0.061728395061728274,0,0,0.061728395061728274,6.172839506172827,0)" xlink:href="#aw"/><use transform="matrix(0.061728395061728274,0,0,0.061728395061728274,12.345679012345654,0)" xlink:href="#aH"/><use transform="matrix(0.061728395061728274,0,0,0.061728395061728274,24.691358024691308,0)" xlink:href="#aC"/><use transform="matrix(0.061728395061728274,0,0,0.061728395061728274,32.037037037036974,0)" xlink:href="#at"/><use transform="matrix(0.061728395061728274,0,0,0.061728395061728274,44.38271604938263,0)" xlink:href="#aw"/><use transform="matrix(0.061728395061728274,0,0,0.061728395061728274,50.55555555555546,0)" xlink:href="#aF"/><use transform="matrix(0.061728395061728274,0,0,0.061728395061728274,55.43209876543199,0)" xlink:href="#bd"/><use transform="matrix(0.061728395061728274,0,0,0.061728395061728274,66.54320987654307,0)" xlink:href="#aH"/></g><g id="Q"><use transform="matrix(0.061728395061728274,0,0,0.061728395061728274,0,0)" xlink:href="#ar"/><use transform="matrix(0.061728395061728274,0,0,0.061728395061728274,12.345679012345654,0)" xlink:href="#aS"/><use transform="matrix(0.061728395061728274,0,0,0.061728395061728274,27.16049382716044,0)" xlink:href="#aN"/></g><g id="R"><use transform="matrix(0.061728395061728274,0,0,0.061728395061728274,0,0)" xlink:href="#aL"/><use transform="matrix(0.061728395061728274,0,0,0.061728395061728274,15.987654320987623,0)" xlink:href="#aM"/><use transform="matrix(0.061728395061728274,0,0,0.061728395061728274,34.44444444444437,0)" xlink:href="#aK"/><use transform="matrix(0.061728395061728274,0,0,0.061728395061728274,49.25925925925916,0)" xlink:href="#aI"/></g><g id="S"><use transform="matrix(0.061728395061728274,0,0,0.061728395061728274,0,0)" xlink:href="#aU"/><use transform="matrix(0.061728395061728274,0,0,0.061728395061728274,13.518518518518492,0)" xlink:href="#aF"/><use transform="matrix(0.061728395061728274,0,0,0.061728395061728274,18.395061728395028,0)" xlink:href="#aO"/><use transform="matrix(0.061728395061728274,0,0,0.061728395061728274,30.740740740740684,0)" xlink:href="#au"/></g><g id="T"><use transform="matrix(0.061728395061728274,0,0,0.061728395061728274,0,0)" xlink:href="#be"/><use transform="matrix(0.061728395061728274,0,0,0.061728395061728274,7.83950617283949,0)" xlink:href="#aM"/><use transform="matrix(0.061728395061728274,0,0,0.061728395061728274,26.29629629629624,0)" xlink:href="#aH"/><use transform="matrix(0.061728395061728274,0,0,0.061728395061728274,38.641975308641896,0)" xlink:href="#aW"/><use transform="matrix(0.061728395061728274,0,0,0.061728395061728274,49.75308641975299,0)" xlink:href="#aW"/><use transform="matrix(0.061728395061728274,0,0,0.061728395061728274,60.864197530864075,0)" xlink:href="#bb"/><use transform="matrix(0.061728395061728274,0,0,0.061728395061728274,71.97530864197516,0)" xlink:href="#be"/></g><g id="U"><use transform="matrix(0.061728395061728274,0,0,0.061728395061728274,0,0)" xlink:href="#aJ"/><use transform="matrix(0.061728395061728274,0,0,0.061728395061728274,15.987654320987623,0)" xlink:href="#at"/><use transform="matrix(0.061728395061728274,0,0,0.061728395061728274,28.33333333333328,0)" xlink:href="#aE"/><use transform="matrix(0.061728395061728274,0,0,0.061728395061728274,33.209876543209816,0)" xlink:href="#aE"/></g><g id="V"><use transform="matrix(0.061728395061728274,0,0,0.061728395061728274,0,0)" xlink:href="#aI"/><use transform="matrix(0.061728395061728274,0,0,0.061728395061728274,14.814814814814786,0)" xlink:href="#aH"/><use transform="matrix(0.061728395061728274,0,0,0.061728395061728274,27.16049382716044,0)" xlink:href="#at"/><use transform="matrix(0.061728395061728274,0,0,0.061728395061728274,39.50617283950609,0)" xlink:href="#bi"/><use transform="matrix(0.061728395061728274,0,0,0.061728395061728274,50.61728395061718,0)" xlink:href="#aW"/></g><path fill="#282c33" d="M101-251c82-7 93 87 43 132L82-64C71-53 59-42 53-27h129V0H18c2-99 128-94 128-182 0-28-16-43-45-43s-46 15-49 41l-32-3c6-41 34-60 81-64" id="bo"/><g id="W"><use transform="matrix(0.061728395061728274,0,0,0.061728395061728274,0,0)" xlink:href="#ax"/><use transform="matrix(0.061728395061728274,0,0,0.061728395061728274,7.345679012345665,0)" xlink:href="#aM"/><use transform="matrix(0.061728395061728274,0,0,0.061728395061728274,25.80246913580242,0)" xlink:href="#aK"/><use transform="matrix(0.061728395061728274,0,0,0.061728395061728274,40.61728395061721,0)" xlink:href="#aJ"/><use transform="matrix(0.061728395061728274,0,0,0.061728395061728274,56.60493827160483,0)" xlink:href="#aS"/><use transform="matrix(0.061728395061728274,0,0,0.061728395061728274,71.41975308641962,0)" xlink:href="#bo"/><use transform="matrix(0.061728395061728274,0,0,0.061728395061728274,83.76543209876527,0)" xlink:href="#aA"/></g><g id="X"><use transform="matrix(0.061728395061728274,0,0,0.061728395061728274,0,0)" xlink:href="#aK"/><use transform="matrix(0.061728395061728274,0,0,0.061728395061728274,14.814814814814786,0)" xlink:href="#au"/><use transform="matrix(0.061728395061728274,0,0,0.061728395061728274,27.16049382716044,0)" xlink:href="#au"/></g><g id="Y"><use transform="matrix(0.061728395061728274,0,0,0.061728395061728274,0,0)" xlink:href="#aM"/><use transform="matrix(0.061728395061728274,0,0,0.061728395061728274,18.456790123456752,0)" xlink:href="#as"/><use transform="matrix(0.061728395061728274,0,0,0.061728395061728274,30.802469135802404,0)" xlink:href="#aw"/><use transform="matrix(0.061728395061728274,0,0,0.061728395061728274,36.97530864197523,0)" xlink:href="#aF"/><use transform="matrix(0.061728395061728274,0,0,0.061728395061728274,41.85185185185176,0)" xlink:href="#aY"/></g><g id="Z"><use transform="matrix(0.061728395061728274,0,0,0.061728395061728274,0,0)" xlink:href="#aK"/><use transform="matrix(0.061728395061728274,0,0,0.061728395061728274,14.814814814814786,0)" xlink:href="#aO"/><use transform="matrix(0.061728395061728274,0,0,0.061728395061728274,27.16049382716044,0)" xlink:href="#aO"/><use transform="matrix(0.061728395061728274,0,0,0.061728395061728274,39.50617283950609,0)" xlink:href="#as"/><use transform="matrix(0.061728395061728274,0,0,0.061728395061728274,51.85185185185175,0)" xlink:href="#aw"/><use transform="matrix(0.061728395061728274,0,0,0.061728395061728274,58.024691358024576,0)" xlink:href="#at"/><use transform="matrix(0.061728395061728274,0,0,0.061728395061728274,70.37037037037022,0)" xlink:href="#aw"/><use transform="matrix(0.061728395061728274,0,0,0.061728395061728274,76.54320987654305,0)" xlink:href="#aF"/><use transform="matrix(0.061728395061728274,0,0,0.061728395061728274,81.41975308641958,0)" xlink:href="#as"/><use transform="matrix(0.061728395061728274,0,0,0.061728395061728274,93.76543209876523,0)" xlink:href="#aO"/><use transform="matrix(0.061728395061728274,0,0,0.061728395061728274,106.11111111111089,0)" xlink:href="#aW"/></g><g id="aa"><use transform="matrix(0.061728395061728274,0,0,0.061728395061728274,0,0)" xlink:href="#av"/><use transform="matrix(0.061728395061728274,0,0,0.061728395061728274,15.987654320987623,0)" xlink:href="#aK"/><use transform="matrix(0.061728395061728274,0,0,0.061728395061728274,30.80246913580241,0)" xlink:href="#aI"/><use transform="matrix(0.061728395061728274,0,0,0.061728395061728274,45.6172839506172,0)" xlink:href="#aW"/></g><g id="ab"><use transform="matrix(0.061728395061728274,0,0,0.061728395061728274,0,0)" xlink:href="#aH"/><use transform="matrix(0.061728395061728274,0,0,0.061728395061728274,12.345679012345654,0)" xlink:href="#at"/><use transform="matrix(0.061728395061728274,0,0,0.061728395061728274,24.691358024691308,0)" xlink:href="#aZ"/><use transform="matrix(0.061728395061728274,0,0,0.061728395061728274,35.8024691358024,0)" xlink:href="#ay"/></g></defs></g></svg>