<svg xmlns="http://www.w3.org/2000/svg" id="svg_view" viewBox="0 0 500 500" width="500" height="500" cursor="pointer"><rect width="500" height="500" fill="white" visibility="visible"/><g transform="translate(13.225250607176614,-14.06330197049185) scale(1.0084401191148766)"><line class="edge&#10;           cluster1&#10;           clusterEdge1&#10;           internalEdge1" stroke="#566573" stroke-linecap="butt" opacity="0.5" visibility="visible" stroke-width="0.9916305202907986" x1="95.88095926878637" y1="257.62090888890083" x2="103.15015493898017" y2="252.45545747915926" fill-opacity="0.5"/><line class="edge&#10;           cluster1&#10;           clusterEdge1&#10;           internalEdge1" stroke="#566573" stroke-linecap="butt" opacity="0.5" visibility="visible" stroke-width="0.9916305202907986" x1="127.03213962465534" y1="232.18535804358385" x2="120.5122037934516" y2="238.2793352195176" fill-opacity="0.5"/><line class="edge&#10;           cluster1&#10;           clusterEdge1&#10;           internalEdge1" stroke="#566573" stroke-linecap="butt" opacity="0.5" visibility="visible" stroke-width="0.9916305202907986" x1="59.941684590806446" y1="254.29695557824897" x2="67.63071319170827" y2="258.82734810979366" fill-opacity="0.5"/><line class="edge&#10;           cluster1&#10;           clusterEdge1&#10;           internalEdge1" stroke="#566573" stroke-linecap="butt" opacity="0.5" visibility="visible" stroke-width="0.9916305202907986" x1="48.52892151404849" y1="260.46606998169995" x2="48.10769894092335" y2="269.3753973460707" fill-opacity="0.5"/><line class="edge&#10;           cluster0&#10;           clusterEdge0&#10;           internalEdge0" stroke="#566573" stroke-linecap="butt" opacity="0.5" visibility="visible" stroke-width="0.9916305202907986" x1="377.13986368196475" y1="302.4479532992817" x2="368.8459803676761" y2="305.74636362325094" fill-opacity="0.5"/><line class="edge&#10;           cluster0&#10;           clusterEdge0&#10;           internalEdge0" stroke="#566573" stroke-linecap="butt" opacity="0.5" visibility="visible" stroke-width="0.9916305202907986" x1="308.0662002984825" y1="235.2083068677802" x2="299.2997319708196" y2="233.55298719951503" fill-opacity="0.5"/><line class="edge&#10;           cluster0&#10;           clusterEdge0&#10;           internalEdge0" stroke="#566573" stroke-linecap="butt" opacity="0.5" visibility="visible" stroke-width="0.9916305202907986" x1="332.9242876788929" y1="236.5359282388419" x2="341.8203975150647" y2="235.82350500166936" fill-opacity="0.5"/><line class="edge&#10;           cluster1&#10;           clusterEdge1&#10;           internalEdge1" stroke="#566573" stroke-linecap="butt" opacity="0.5" visibility="visible" stroke-width="0.9916305202907986" x1="73.1291372172305" y1="291.52927760405794" x2="76.25282746977385" y2="283.16419396170954" fill-opacity="0.5"/><line class="edge&#10;           cluster1&#10;           clusterEdge1&#10;           internalEdge1" stroke="#566573" stroke-linecap="butt" opacity="0.5" visibility="visible" stroke-width="0.9916305202907986" x1="107.07207138524161" y1="273.95758608545884" x2="98.4376832889027" y2="271.679133525273" fill-opacity="0.5"/><line class="edge&#10;            cluster1&#10;            cluster2&#10;            clusterEdge1&#10;            clusterEdge2" stroke="#566573" stroke-linecap="butt" opacity="0.5" visibility="visible" stroke-width="0.9916305202907986" x1="141.40824695285104" y1="215.12962420321188" x2="210.29686587645725" y2="110.33775026044393" fill-opacity="0.5"/><line class="edge&#10;           cluster0&#10;           clusterEdge0&#10;           internalEdge0" stroke="#566573" stroke-linecap="butt" opacity="0.5" visibility="visible" stroke-width="0.9916305202907986" x1="366.1702731732171" y1="328.49539781983435" x2="362.73469332942733" y2="320.2630317012063" fill-opacity="0.5"/><line class="edge&#10;            cluster4&#10;            cluster0&#10;            clusterEdge4&#10;            clusterEdge0" stroke="#566573" stroke-linecap="butt" opacity="0.5" visibility="visible" stroke-width="0.9916305202907986" x1="294.9222040946396" y1="370.84481376874186" x2="359.3642013675231" y2="344.7917499847834" fill-opacity="0.5"/><line class="edge&#10;           cluster1&#10;           clusterEdge1&#10;           internalEdge1" stroke="#566573" stroke-linecap="butt" opacity="0.5" visibility="visible" stroke-width="0.9916305202907986" x1="88.92083748731895" y1="295.7711157072411" x2="58.12162755262618" y2="284.4656950247336" fill-opacity="0.5"/><line class="edge&#10;           cluster1&#10;           clusterEdge1&#10;           internalEdge1" stroke="#566573" stroke-linecap="butt" opacity="0.5" visibility="visible" stroke-width="0.9916305202907986" x1="201.2812481345529" y1="280.32378601702726" x2="195.9964111793964" y2="273.1321369909506" fill-opacity="0.5"/><line class="edge&#10;           cluster0&#10;           clusterEdge0&#10;           internalEdge0" stroke="#566573" stroke-linecap="butt" opacity="0.5" visibility="visible" stroke-width="0.9916305202907986" x1="352.7936530847457" y1="300.16907990802076" x2="348.3330162275096" y2="292.4410799074812" fill-opacity="0.5"/><line class="edge&#10;           cluster0&#10;           clusterEdge0&#10;           internalEdge0" stroke="#566573" stroke-linecap="butt" opacity="0.5" visibility="visible" stroke-width="0.9916305202907986" x1="417.52721543493675" y1="247.06071385676094" x2="409.7050743467958" y2="242.76115211026453" fill-opacity="0.5"/><line class="edge&#10;           cluster1&#10;           clusterEdge1&#10;           internalEdge1" stroke="#566573" stroke-linecap="butt" opacity="0.5" visibility="visible" stroke-width="0.9916305202907986" x1="49.698792116415305" y1="302.6506007346457" x2="70.7396017026062" y2="279.7797159839231" fill-opacity="0.5"/><line class="edge&#10;           cluster0&#10;           clusterEdge0&#10;           internalEdge0" stroke="#566573" stroke-linecap="butt" opacity="0.5" visibility="visible" stroke-width="0.9916305202907986" x1="325.500971412897" y1="226.06016319932047" x2="329.1217681511712" y2="217.9026246284605" fill-opacity="0.5"/><line class="edge&#10;            cluster2&#10;            cluster1&#10;            clusterEdge2&#10;            clusterEdge1" stroke="#566573" stroke-linecap="butt" opacity="0.5" visibility="visible" stroke-width="0.9916305202907986" x1="209.83407552559765" y1="110.01980604805851" x2="118.85422030196247" y2="236.82293780105627" fill-opacity="0.5"/><line class="edge&#10;           cluster1&#10;           clusterEdge1&#10;           internalEdge1" stroke="#566573" stroke-linecap="butt" opacity="0.5" visibility="visible" stroke-width="0.9916305202907986" x1="85.76271888592551" y1="241.86102097652235" x2="84.51053161001971" y2="250.69843792734736" fill-opacity="0.5"/><line class="edge&#10;            cluster1&#10;            cluster2&#10;            clusterEdge1&#10;            clusterEdge2" stroke="#566573" stroke-linecap="butt" opacity="0.5" visibility="visible" stroke-width="0.9916305202907986" x1="56.514356790006275" y1="273.7912925068364" x2="276.3229657532527" y2="106.44943943386482" fill-opacity="0.5"/><line class="edge&#10;           cluster0&#10;           clusterEdge0&#10;           internalEdge0" stroke="#566573" stroke-linecap="butt" opacity="0.5" visibility="visible" stroke-width="0.9916305202907986" x1="418.22845893414404" y1="227.75084163355262" x2="410.1137026852766" y2="231.4744919360685" fill-opacity="0.5"/><line class="edge&#10;           cluster0&#10;           clusterEdge0&#10;           internalEdge0" stroke="#566573" stroke-linecap="butt" opacity="0.5" visibility="visible" stroke-width="0.9916305202907986" x1="380.7584615333309" y1="248.522068706647" x2="388.21038567405606" y2="243.616786612305" fill-opacity="0.5"/><line class="edge&#10;           cluster1&#10;           clusterEdge1&#10;           internalEdge1" stroke="#566573" stroke-linecap="butt" opacity="0.5" visibility="visible" stroke-width="0.9916305202907986" x1="184.5357952640424" y1="253.93026053391935" x2="180.71550791497714" y2="245.8669790185269" fill-opacity="0.5"/><line class="edge&#10;           cluster0&#10;           clusterEdge0&#10;           internalEdge0" stroke="#566573" stroke-linecap="butt" opacity="0.5" visibility="visible" stroke-width="0.9916305202907986" x1="351.0936111920901" y1="253.69655712550616" x2="351.29613772339565" y2="244.77195893636133" fill-opacity="0.5"/><line class="edge&#10;           cluster0&#10;           clusterEdge0&#10;           internalEdge0" stroke="#566573" stroke-linecap="butt" opacity="0.5" visibility="visible" stroke-width="0.9916305202907986" x1="409.9481301197518" y1="215.53715328811086" x2="422.5784741907175" y2="242.3124586013749" fill-opacity="0.5"/><line class="edge&#10;           cluster4&#10;           clusterEdge4&#10;           internalEdge4" stroke="#566573" stroke-linecap="butt" opacity="0.5" visibility="visible" stroke-width="0.9916305202907986" x1="246.9238511422751" y1="425.42571855122054" x2="247.76994071660795" y2="434.3132056789008" fill-opacity="0.5"/><line class="edge&#10;           cluster0&#10;           clusterEdge0&#10;           internalEdge0" stroke="#566573" stroke-linecap="butt" opacity="0.5" visibility="visible" stroke-width="0.9916305202907986" x1="427.61855987068765" y1="263.70083019811545" x2="427.81561015228294" y2="272.6226865745507" fill-opacity="0.5"/><line class="edge&#10;            cluster1&#10;            cluster0&#10;            clusterEdge1&#10;            clusterEdge0" stroke="#566573" stroke-linecap="butt" opacity="0.5" visibility="visible" stroke-width="0.9916305202907986" x1="94.78905003516815" y1="320.6798136099223" x2="324.25993794228367" y2="213.13952464954002" fill-opacity="0.5"/><line class="edge&#10;           cluster4&#10;           clusterEdge4&#10;           internalEdge4" stroke="#566573" stroke-linecap="butt" opacity="0.5" visibility="visible" stroke-width="0.9916305202907986" x1="256.89978756304106" y1="418.6708379261504" x2="264.8393169328143" y2="422.75697451551497" fill-opacity="0.5"/><line class="edge&#10;           cluster1&#10;           clusterEdge1&#10;           internalEdge1" stroke="#566573" stroke-linecap="butt" opacity="0.5" visibility="visible" stroke-width="0.9916305202907986" x1="185.6195105827149" y1="274.677396481666" x2="182.65882841261077" y2="283.09838243466817" fill-opacity="0.5"/><line class="edge&#10;            cluster1&#10;            cluster0&#10;            clusterEdge1&#10;            clusterEdge0" stroke="#566573" stroke-linecap="butt" opacity="0.5" visibility="visible" stroke-width="0.9916305202907986" x1="61.194977352490454" y1="251.37873434601087" x2="358.9338406976235" y2="336.62802235291247" fill-opacity="0.5"/><line class="edge&#10;            cluster4&#10;            cluster2&#10;            clusterEdge4&#10;            clusterEdge2" stroke="#566573" stroke-linecap="butt" opacity="0.5" visibility="visible" stroke-width="0.9916305202907986" x1="250.04186126759558" y1="434.32773352304775" x2="284.96503343571493" y2="111.32780617269383" fill-opacity="0.5"/><line class="edge&#10;            cluster1&#10;            cluster4&#10;            clusterEdge1&#10;            clusterEdge4" stroke="#566573" stroke-linecap="butt" opacity="0.5" visibility="visible" stroke-width="0.9916305202907986" x1="142.57614069755166" y1="203.73667446463028" x2="244.31486796411954" y2="435.212050263672" fill-opacity="0.5"/><line class="edge&#10;            cluster0&#10;            cluster4&#10;            clusterEdge0&#10;            clusterEdge4" stroke="#566573" stroke-linecap="butt" opacity="0.5" visibility="visible" stroke-width="0.9916305202907986" x1="359.2235521715157" y1="344.42767384528474" x2="267.39355752360666" y2="378.27286877727806" fill-opacity="0.5"/><line class="edge&#10;            cluster1&#10;            cluster4&#10;            clusterEdge1&#10;            clusterEdge4" stroke="#566573" stroke-linecap="butt" opacity="0.5" visibility="visible" stroke-width="0.9916305202907986" x1="59.66956878397824" y1="254.7377466942135" x2="247.42023737645232" y2="376.0610471803221" fill-opacity="0.5"/><line class="edge&#10;            cluster1&#10;            cluster2&#10;            clusterEdge1&#10;            clusterEdge2" stroke="#566573" stroke-linecap="butt" opacity="0.5" visibility="visible" stroke-width="0.9916305202907986" x1="182.59958419191557" y1="229.4583036195659" x2="278.50571310780566" y2="108.67718258075276" fill-opacity="0.5"/><line class="edge&#10;           cluster4&#10;           clusterEdge4&#10;           internalEdge4" stroke="#566573" stroke-linecap="butt" opacity="0.5" visibility="visible" stroke-width="0.9916305202907986" x1="236.0794128874922" y1="420.95537857670615" x2="229.2167841145238" y2="426.66429226970513" fill-opacity="0.5"/><line class="edge&#10;           cluster0&#10;           clusterEdge0&#10;           internalEdge0" stroke="#566573" stroke-linecap="butt" opacity="0.5" visibility="visible" stroke-width="0.9916305202907986" x1="389.69095797839157" y1="289.78196476065295" x2="392.9137420122922" y2="281.45814683948566" fill-opacity="0.5"/><line class="edge&#10;           cluster0&#10;           clusterEdge0&#10;           internalEdge0" stroke="#566573" stroke-linecap="butt" opacity="0.5" visibility="visible" stroke-width="0.9916305202907986" x1="310.86897347440294" y1="256.7870039770819" x2="314.83082691351103" y2="248.7909977638706" fill-opacity="0.5"/><line class="edge&#10;           cluster1&#10;           clusterEdge1&#10;           internalEdge1" stroke="#566573" stroke-linecap="butt" opacity="0.5" visibility="visible" stroke-width="0.9916305202907986" x1="91.37228828282242" y1="316.7110372662487" x2="111.70714624428385" y2="286.1727269457278" fill-opacity="0.5"/><line class="edge&#10;           cluster4&#10;           clusterEdge4&#10;           internalEdge4" stroke="#566573" stroke-linecap="butt" opacity="0.5" visibility="visible" stroke-width="0.9916305202907986" x1="257.42265171822334" y1="408.3334230301635" x2="271.1350814939653" y2="402.9480191281957" fill-opacity="0.5"/><line class="edge&#10;           cluster0&#10;           clusterEdge0&#10;           internalEdge0" stroke="#566573" stroke-linecap="butt" opacity="0.5" visibility="visible" stroke-width="0.9916305202907986" x1="443.41728837066023" y1="292.8925403665935" x2="436.05444955936093" y2="287.8467299644686" fill-opacity="0.5"/><line class="edge&#10;           cluster0&#10;           clusterEdge0&#10;           internalEdge0" stroke="#566573" stroke-linecap="butt" opacity="0.5" visibility="visible" stroke-width="0.9916305202907986" x1="440.4757663718097" y1="234.2946370744981" x2="411.23704354964644" y2="235.98652896201872" fill-opacity="0.5"/><line class="edge&#10;           cluster1&#10;           clusterEdge1&#10;           internalEdge1" stroke="#566573" stroke-linecap="butt" opacity="0.5" visibility="visible" stroke-width="0.9916305202907986" x1="65.18370981835957" y1="230.8626085709887" x2="69.09431740934814" y2="290.9351921503683" fill-opacity="0.5"/><line class="edge&#10;           cluster1&#10;           clusterEdge1&#10;           internalEdge1" stroke="#566573" stroke-linecap="butt" opacity="0.5" visibility="visible" stroke-width="0.9916305202907986" x1="118.18074011848864" y1="298.9927245352663" x2="94.81219446234785" y2="278.4915602963687" fill-opacity="0.5"/><line class="edge&#10;           cluster1&#10;           clusterEdge1&#10;           internalEdge1" stroke="#566573" stroke-linecap="butt" opacity="0.5" visibility="visible" stroke-width="0.9916305202907986" x1="137.54743295718464" y1="204.49480724762924" x2="136.52519247380496" y2="213.3571566408548" fill-opacity="0.5"/><line class="edge&#10;           cluster1&#10;           clusterEdge1&#10;           internalEdge1" stroke="#566573" stroke-linecap="butt" opacity="0.5" visibility="visible" stroke-width="0.9916305202907986" x1="113.40473903643094" y1="318.2594029606323" x2="116.71248261514324" y2="287.9893321397285" fill-opacity="0.5"/><line class="edge&#10;           cluster1&#10;           clusterEdge1&#10;           internalEdge1" stroke="#566573" stroke-linecap="butt" opacity="0.5" visibility="visible" stroke-width="0.9916305202907986" x1="107.58040720586024" y1="297.1625796867761" x2="136.42903282001916" y2="291.2265495949334" fill-opacity="0.5"/><line class="edge&#10;           cluster4&#10;           clusterEdge4&#10;           internalEdge4" stroke="#566573" stroke-linecap="butt" opacity="0.5" visibility="visible" stroke-width="0.9916305202907986" x1="270.71882969955595" y1="417.44273310996465" x2="260.9620176460131" y2="392.61151828347033" fill-opacity="0.5"/><line class="edge&#10;           cluster2&#10;           clusterEdge2&#10;           internalEdge2" stroke="#566573" stroke-linecap="butt" opacity="0.5" visibility="visible" stroke-width="0.9916305202907986" x1="298.8730784621351" y1="98.84245924219552" x2="307.8010773080375" y2="98.84245923994634" fill-opacity="0.5"/><line class="edge&#10;           cluster4&#10;           clusterEdge4&#10;           internalEdge4" stroke="#566573" stroke-linecap="butt" opacity="0.5" visibility="visible" stroke-width="0.9916305202907986" x1="283.92828103953286" y1="384.015557073169" x2="277.10777915789555" y2="416.89875783044187" fill-opacity="0.5"/><line class="edge&#10;           cluster1&#10;           clusterEdge1&#10;           internalEdge1" stroke="#566573" stroke-linecap="butt" opacity="0.5" visibility="visible" stroke-width="0.9916305202907986" x1="27.311638998345046" y1="281.42744340436053" x2="65.82540169310147" y2="271.56136150434855" fill-opacity="0.5"/><line class="edge&#10;           cluster4&#10;           clusterEdge4&#10;           internalEdge4" stroke="#566573" stroke-linecap="butt" opacity="0.5" visibility="visible" stroke-width="0.9916305202907986" x1="210.35181041955022" y1="448.9174590372231" x2="216.10586273175974" y2="440.81596625877086" fill-opacity="0.5"/><line class="edge&#10;           cluster2&#10;           clusterEdge2&#10;           internalEdge2" stroke="#566573" stroke-linecap="butt" opacity="0.5" visibility="visible" stroke-width="0.9916305202907986" x1="240.53749210720184" y1="98.84868566265956" x2="231.6104222824027" y2="98.84623529370414" fill-opacity="0.5"/><line class="edge&#10;           cluster2&#10;           clusterEdge2&#10;           internalEdge2" stroke="#566573" stroke-linecap="butt" opacity="0.5" visibility="visible" stroke-width="0.9916305202907986" x1="215.841014675503" y1="121.4363638929161" x2="216.6330718891888" y2="112.54492303912775" fill-opacity="0.5"/><line class="edge&#10;           cluster2&#10;           clusterEdge2&#10;           internalEdge2" stroke="#566573" stroke-linecap="butt" opacity="0.5" visibility="visible" stroke-width="0.9916305202907986" x1="216.07158007799208" y1="76.2292098360025" x2="216.7729018103095" y2="85.12825777220907" fill-opacity="0.5"/><circle r="16.848476710850083" cx="82.14685415621523" cy="267.38029023368415" name="LCP2" entrez="3937" stroke-opacity="0.5" fill-opacity="1" stroke="black" fill="#a78e72" id="node_3" class="node cluster1 nCluster1 graph_0 anchor" stroke-width="0.9916305202907986" opacity="1"/><circle r="11.232317807233388" cx="117.9326241403666" cy="276.82348161318475" name="TES" entrez="26136" stroke-opacity="0.5" fill-opacity="1" stroke="black" fill="#a78e72" id="node_25" class="node cluster1 nCluster1 graph_0" stroke-width="0.9916305202907986" opacity="1"/><circle r="9.727472564444435" cx="69.72621932320273" cy="300.64211867029655" name="CCND3" entrez="896" stroke-opacity="0.5" fill-opacity="1" stroke="black" fill="#a78e72" id="node_26" class="node cluster1 nCluster1 graph_0" stroke-width="0.9916305202907986" opacity="1"/><circle r="11.232317807233388" cx="135.23811840407936" cy="224.51549001379774" name="CD163" entrez="9332" stroke-opacity="0.5" fill-opacity="1" stroke="black" fill="#a78e72" id="node_5" class="node cluster1 nCluster1 graph_0" stroke-width="0.9916305202907986" opacity="1"/><circle r="11.232317807233388" cx="112.30622501402759" cy="245.9492032493037" name="CD48" entrez="962" stroke-opacity="0.5" fill-opacity="1" stroke="black" fill="#a78e72" id="node_4" class="node cluster1 nCluster1 graph_0" stroke-width="0.9916305202907986" opacity="1"/><circle r="11.232317807233388" cx="47.577240630302484" cy="280.5951824288335" name="GALNT2" entrez="2590" stroke-opacity="0.5" fill-opacity="1" stroke="black" fill="#a78e72" id="node_40" class="node cluster1 nCluster1 graph_0" stroke-width="0.9916305202907986" opacity="1"/><circle r="9.727472564444435" cx="98.05254442938367" cy="299.12307794095824" name="PLP2" entrez="5355" stroke-opacity="0.5" fill-opacity="1" stroke="black" fill="#a78e72" id="node_7" class="node cluster1 nCluster1 graph_0" stroke-width="0.9916305202907986" opacity="1"/><circle r="12.558113080927617" cx="49.12199193493747" cy="247.9219689127021" name="STAT3" entrez="6774" stroke-opacity="0.5" fill-opacity="1" stroke="black" fill="#a78e72" id="node_14" class="node cluster1 nCluster1 graph_0" stroke-width="0.9916305202907986" opacity="1"/><circle r="9.727472564444435" cx="85.98086627411627" cy="324.80772123044403" name="ABRACL" entrez="58527" stroke-opacity="0.5" fill-opacity="1" stroke="black" fill="#a78e72" id="node_55" class="node cluster1 nCluster1 graph_0" stroke-width="0.9916305202907986" opacity="1"/><circle r="7.94244808993714" cx="19.617632521357297" cy="283.3984193031012" name="AMDHD2" entrez="51005" stroke-opacity="0.5" fill-opacity="1" stroke="black" fill="#a78e72" id="node_52" class="node cluster1 nCluster1 graph_0" stroke-width="0.9916305202907986" opacity="1"/><circle r="7.94244808993714" cx="112.5419686899382" cy="326.1548515856668" name="IFFO2" entrez="126917" stroke-opacity="0.5" fill-opacity="1" stroke="black" fill="#a78e72" id="node_57" class="node cluster1 nCluster1 graph_0" stroke-width="0.9916305202907986" opacity="1"/><circle r="7.94244808993714" cx="144.20850020056082" cy="289.62580947347885" name="MARVELD1" entrez="83742" stroke-opacity="0.5" fill-opacity="1" stroke="black" fill="#a78e72" id="node_54" class="node cluster1 nCluster1 graph_0" stroke-width="0.9916305202907986" opacity="1"/><circle r="7.94244808993714" cx="64.66776406621563" cy="222.93693625615063" name="MFSD5" entrez="84975" stroke-opacity="0.5" fill-opacity="1" stroke="black" fill="#a78e72" id="node_53" class="node cluster1 nCluster1 graph_0" stroke-width="0.9916305202907986" opacity="1"/><circle r="7.94244808993714" cx="86.87696712334078" cy="233.99712038414688" name="MKNK1" entrez="8569" stroke-opacity="0.5" fill-opacity="1" stroke="black" fill="#a78e72" id="node_36" class="node cluster1 nCluster1 graph_0" stroke-width="0.9916305202907986" opacity="1"/><circle r="7.94244808993714" cx="124.15123879615643" cy="304.2306274745458" name="MOB3A" entrez="126308" stroke-opacity="0.5" fill-opacity="1" stroke="black" fill="#a78e72" id="node_38" class="node cluster1 nCluster1 graph_0" stroke-width="0.9916305202907986" opacity="1"/><circle r="7.94244808993714" cx="44.32136173997942" cy="308.49574608852106" name="SH3TC1" entrez="54436" stroke-opacity="0.5" fill-opacity="1" stroke="black" fill="#a78e72" id="node_6" class="node cluster1 nCluster1 graph_0" stroke-width="0.9916305202907986" opacity="1"/><circle r="9.727472564444435" cx="138.66207179811923" cy="194.83140708276494" name="SLC16A5" entrez="9121" stroke-opacity="0.5" fill-opacity="1" stroke="black" fill="#a78e72" id="node_56" class="node cluster1 nCluster1 graph_0" stroke-width="0.9916305202907986" opacity="1"/><circle r="11.232317807233388" cx="189.3450589474225" cy="264.08092288405265" name="JUND" entrez="3727" stroke-opacity="0.5" fill-opacity="1" stroke="black" fill="#a78e72" id="node_39" class="node cluster1 nCluster1 graph_6 anchor" stroke-width="0.9916305202907986" opacity="1"/><circle r="7.94244808993714" cx="205.9844644018419" cy="286.72396088998613" name="PHC2" entrez="1912" stroke-opacity="0.5" fill-opacity="1" stroke="black" fill="#a78e72" id="node_18" class="node cluster1 nCluster1 graph_6" stroke-width="0.9916305202907986" opacity="1"/><circle r="7.94244808993714" cx="180.02446790028756" cy="290.5912207722048" name="SERTAD3" entrez="29946" stroke-opacity="0.5" fill-opacity="1" stroke="black" fill="#a78e72" id="node_34" class="node cluster1 nCluster1 graph_6" stroke-width="0.9916305202907986" opacity="1"/><circle r="9.727472564444435" cx="176.55056339167206" cy="237.07624755807322" name="TUBA1A" entrez="7846" stroke-opacity="0.5" fill-opacity="1" stroke="black" fill="#a78e72" id="node_47" class="node cluster1 nCluster1 graph_6" stroke-width="0.9916305202907986" opacity="1"/><circle r="12.558113080927617" cx="320.406250884304" cy="237.5384046538682" name="THAP12" entrez="5612" stroke-opacity="0.5" fill-opacity="1" stroke="black" fill="#7b707d" id="node_0" class="node cluster0 nCluster0 graph_1 anchor" stroke-width="0.9916305202907986" opacity="1" visibility="visible"/><circle r="9.727472564444435" cx="351.5168271215956" cy="235.04699010959683" name="ZC3H7A" entrez="29066" stroke-opacity="0.5" fill-opacity="1" stroke="black" fill="#7b707d" id="node_9" class="node cluster0 nCluster0 graph_1" stroke-width="0.9916305202907986" opacity="1" visibility="visible"/><circle r="7.94244808993714" cx="350.9134190530129" cy="261.6369609221881" name="ALG13" entrez="79868" stroke-opacity="0.5" fill-opacity="1" stroke="black" fill="#7b707d" id="node_12" class="node cluster0 nCluster0 graph_1" stroke-width="0.9916305202907986" opacity="1" visibility="visible"/><circle r="9.727472564444435" cx="333.0681217033355" cy="209.0116170290183" name="HSPB11" entrez="51668" stroke-opacity="0.5" fill-opacity="1" stroke="black" fill="#7b707d" id="node_1" class="node cluster0 nCluster0 graph_1" stroke-width="0.9916305202907986" opacity="1" visibility="visible"/><circle r="7.94244808993714" cx="307.34276574064177" cy="263.9037687392269" name="RBM27" entrez="54439" stroke-opacity="0.5" fill-opacity="1" stroke="black" fill="#7b707d" id="node_8" class="node cluster0 nCluster0 graph_1" stroke-width="0.9916305202907986" opacity="1" visibility="visible"/><circle r="7.94244808993714" cx="291.4951987122414" cy="232.07930396452426" name="STARD7" entrez="56910" stroke-opacity="0.5" fill-opacity="1" stroke="black" fill="#7b707d" id="node_29" class="node cluster0 nCluster0 graph_1" stroke-width="0.9916305202907986" opacity="1" visibility="visible"/><circle r="12.558113080927617" cx="398.6999021796106" cy="236.7119877279736" name="MPHOSPH10" entrez="10199" stroke-opacity="0.5" fill-opacity="1" stroke="black" fill="#7b707d" id="node_10" class="node cluster0 nCluster0 graph_4 anchor" stroke-width="0.9916305202907986" opacity="1" visibility="visible"/><circle r="11.232317807233388" cx="427.37054066290267" cy="252.47125096311018" name="CWC15" entrez="51503" stroke-opacity="0.5" fill-opacity="1" stroke="black" fill="#7b707d" id="node_28" class="node cluster0 nCluster0 graph_4" stroke-width="0.9916305202907986" opacity="1" visibility="visible"/><circle r="9.727472564444435" cx="428.0304010868512" cy="282.3477874658755" name="PPP1R8" entrez="5511" stroke-opacity="0.5" fill-opacity="1" stroke="black" fill="#7b707d" id="node_27" class="node cluster0 nCluster0 graph_4" stroke-width="0.9916305202907986" opacity="1" visibility="visible"/><circle r="7.94244808993714" cx="425.4471802054813" cy="224.43835844595912" name="GGNBP2" entrez="79893" stroke-opacity="0.5" fill-opacity="1" stroke="black" fill="#7b707d" id="node_11" class="node cluster0 nCluster0 graph_4" stroke-width="0.9916305202907986" opacity="1" visibility="visible"/><circle r="7.94244808993714" cx="374.12430879103437" cy="252.88904695862234" name="NAA25" entrez="80018" stroke-opacity="0.5" fill-opacity="1" stroke="black" fill="#7b707d" id="node_20" class="node cluster0 nCluster0 graph_4" stroke-width="0.9916305202907986" opacity="1" visibility="visible"/><circle r="7.94244808993714" cx="448.40495078717714" cy="233.8358166647076" name="TAF5L" entrez="27097" stroke-opacity="0.5" fill-opacity="1" stroke="black" fill="#7b707d" id="node_17" class="node cluster0 nCluster0 graph_4" stroke-width="0.9916305202907986" opacity="1" visibility="visible"/><circle r="7.94244808993714" cx="449.9688965136628" cy="297.38240811541294" name="TMEM183A" entrez="92703" stroke-opacity="0.5" fill-opacity="1" stroke="black" fill="#7b707d" id="node_43" class="node cluster0 nCluster0 graph_4" stroke-width="0.9916305202907986" opacity="1" visibility="visible"/><circle r="11.232317807233388" cx="358.40874886742813" cy="309.8971661881683" name="RSBN1" entrez="54665" stroke-opacity="0.5" fill-opacity="1" stroke="black" fill="#7b707d" id="node_16" class="node cluster0 nCluster0 graph_5 anchor" stroke-width="0.9916305202907986" opacity="1" visibility="visible"/><circle r="9.727472564444435" cx="386.17877130635867" cy="298.8532528319697" name="DCP2" entrez="167227" stroke-opacity="0.5" fill-opacity="1" stroke="black" fill="#7b707d" id="node_15" class="node cluster0 nCluster0 graph_5" stroke-width="0.9916305202907986" opacity="1" visibility="visible"/><circle r="12.558113080927617" cx="371.0068261151765" cy="340.0847877862212" name="KAT6A" entrez="7994" stroke-opacity="0.5" fill-opacity="1" stroke="black" fill="#7b707d" id="node_37" class="node cluster0 nCluster0 graph_5" stroke-width="0.9916305202907986" opacity="1" visibility="visible"/><circle r="7.94244808993714" cx="395.781430421587" cy="274.05147114464506" name="RTF1" entrez="23168" stroke-opacity="0.5" fill-opacity="1" stroke="black" fill="#7b707d" id="node_19" class="node cluster0 nCluster0 graph_5" stroke-width="0.9916305202907986" opacity="1" visibility="visible"/><circle r="7.94244808993714" cx="344.36254392256285" cy="285.56228413082107" name="SLC35A3" entrez="23443" stroke-opacity="0.5" fill-opacity="1" stroke="black" fill="#7b707d" id="node_13" class="node cluster0 nCluster0 graph_5" stroke-width="0.9916305202907986" opacity="1" visibility="visible"/><circle r="12.558113080927617" cx="245.73369869202406" cy="412.92412900034634" name="SPG7" entrez="6687" stroke-opacity="0.5" fill-opacity="1" stroke="black" fill="#b6abb9" id="node_32" class="node cluster4 nCluster4 graph_2 anchor" stroke-width="0.9916305202907986" opacity="1"/><circle r="11.232317807233388" cx="274.8265704361735" cy="427.89698723751604" name="STRADA" entrez="92335" stroke-opacity="0.5" fill-opacity="1" stroke="black" fill="#b6abb9" id="node_41" class="node cluster4 nCluster4 graph_2" stroke-width="0.9916305202907986" opacity="1"/><circle r="9.727472564444435" cx="221.73860648642807" cy="432.88527144140056" name="ANKRD11" entrez="29123" stroke-opacity="0.5" fill-opacity="1" stroke="black" fill="#b6abb9" id="node_48" class="node cluster4 nCluster4 graph_2" stroke-width="0.9916305202907986" opacity="1"/><circle r="9.727472564444435" cx="285.9038657438788" cy="374.4908110099937" name="BRPF1" entrez="7862" stroke-opacity="0.5" fill-opacity="1" stroke="black" fill="#b6abb9" id="node_30" class="node cluster4 nCluster4 graph_2" stroke-width="0.9916305202907986" opacity="1"/><circle r="11.232317807233388" cx="256.8542769093956" cy="382.15726415591894" name="KPNA6" entrez="23633" stroke-opacity="0.5" fill-opacity="1" stroke="black" fill="#b6abb9" id="node_31" class="node cluster4 nCluster4 graph_2" stroke-width="0.9916305202907986" opacity="1"/><circle r="7.94244808993714" cx="205.75269440262153" cy="455.3928442399872" name="SPATA2L" entrez="124044" stroke-opacity="0.5" fill-opacity="1" stroke="black" fill="#b6abb9" id="node_51" class="node cluster4 nCluster4 graph_2" stroke-width="0.9916305202907986" opacity="1"/><circle r="7.94244808993714" cx="278.5278244990668" cy="400.04460174141354" name="TRIM11" entrez="81559" stroke-opacity="0.5" fill-opacity="1" stroke="black" fill="#b6abb9" id="node_42" class="node cluster4 nCluster4 graph_2" stroke-width="0.9916305202907986" opacity="1"/><circle r="11.232317807233388" cx="248.83444542954766" cy="445.4949673039231" name="VPS11" entrez="55823" stroke-opacity="0.5" fill-opacity="1" stroke="black" fill="#b6abb9" id="node_33" class="node cluster4 nCluster4 graph_2" stroke-width="0.9916305202907986" opacity="1"/><circle r="13.75672362824951" cx="217.8536991723922" cy="98.84245924535921" name="OLR1" entrez="4973" stroke-opacity="0.5" fill-opacity="1" stroke="black" fill="#6e9a87" id="node_50" class="node cluster2 nCluster2 graph_3 anchor" stroke-width="0.9916305202907986" visibility="visible" opacity="1"/><circle r="7.94244808993714" cx="248.47993989793355" cy="98.85086576518799" name="ATF6B" entrez="1388" stroke-opacity="0.5" fill-opacity="1" stroke="black" fill="#6e9a87" id="node_22" class="node cluster2 nCluster2 graph_3" stroke-width="0.9916305202907986" visibility="visible" opacity="1"/><circle r="7.94244808993714" cx="215.13628518496532" cy="129.34748505280947" name="ELK4" entrez="2005" stroke-opacity="0.5" fill-opacity="1" stroke="black" fill="#6e9a87" id="node_21" class="node cluster2 nCluster2 graph_3" stroke-width="0.9916305202907986" visibility="visible" opacity="1"/><circle r="7.94244808993714" cx="215.44758143005419" cy="68.31131192375851" name="FFAR2" entrez="2867" stroke-opacity="0.5" fill-opacity="1" stroke="black" fill="#6e9a87" id="node_49" class="node cluster2 nCluster2 graph_3" stroke-width="0.9916305202907986" visibility="visible" opacity="1"/><circle r="12.558113080927617" cx="286.31496538120746" cy="98.84245924535921" name="MAN1B1" entrez="11253" stroke-opacity="0.5" fill-opacity="1" stroke="black" fill="#6e9a87" id="node_46" class="node cluster2 nCluster2 graph_7 anchor" stroke-width="0.9916305202907986" visibility="visible" opacity="1"/><circle r="7.94244808993714" cx="315.7435253979747" cy="98.84245923794543" name="TCEA2" entrez="6919" stroke-opacity="0.5" fill-opacity="1" stroke="black" fill="#6e9a87" id="node_45" class="node cluster2 nCluster2 graph_7" stroke-width="0.9916305202907986" visibility="visible" opacity="1"/><circle r="7.94244808993714" cx="406.55962742137297" cy="208.35380232046174" name="MITD1" entrez="129531" stroke-opacity="0.5" fill-opacity="1" stroke="black" fill="#7b707d" id="node_2" class="node cluster0 nCluster0 graph_4" stroke-width="0.9916305202907986" opacity="1" visibility="visible"/></g><g><path class="polygons" fill="black" fill-opacity="0" cursor="pointer" d="M112.21756311910485,267.50419318352357L97.11070267239467,275.07394557834203L81.28251154604652,269.1633810878133L75.12165354966837,253.04683039805454L84.69860766098425,236.79272580144357L107.94607911359343,240.08669598661436L116.33666035239838,251.89452689496514L112.21756311910485,267.50419318352357Z"/><path class="polygons" fill="black" fill-opacity="0" cursor="pointer" d="M142.62513912957607,277.25123585693933L127.10176449647344,280.7734517596475L112.21756311910485,267.50419318352357L116.33666035239838,251.89452689496514L157.835951940396,244.33186987728558L158.54936068503852,244.56789291240128L142.62513912957607,277.25123585693933Z"/><path class="polygons" fill="black" fill-opacity="0" cursor="pointer" d="M98.28107771824989,296.8985243435848L76.45120449852409,311.5820763587546L67.90655085807437,283.9418921134634L81.28251154604652,269.1633810878133L97.11070267239467,275.07394557834203L98.28107771824989,296.8985243435848Z"/><path class="polygons" fill="black" fill-opacity="0" cursor="pointer" d="M158.54936068503852,244.56789291240128L157.835951940396,244.33186987728558L123.31181303192993,207.3945522910455L120.65459316217984,193.84137556006556L176.04496688913383,200.23045817246017L162.74002362474707,243.9905367135451L158.54936068503852,244.56789291240128Z"/><path class="polygons" fill="black" fill-opacity="0" cursor="pointer" d="M157.835951940396,244.33186987728558L116.33666035239838,251.89452689496514L107.94607911359343,240.08669598661436L123.31181303192993,207.3945522910455L157.835951940396,244.33186987728558Z"/><path class="polygons" fill="black" fill-opacity="0" cursor="pointer" d="M81.28251154604652,269.1633810878133L67.90655085807437,283.9418921134634L48.24256311140342,281.64718712524615L45.23340877315532,251.63374915678105L75.12165354966837,253.04683039805454L81.28251154604652,269.1633810878133Z"/><path class="polygons" fill="black" fill-opacity="0" cursor="pointer" d="M123.53391334154152,299.00455382265557L113.82954068381186,304.2062388644321L98.28107771824989,296.8985243435848L97.11070267239467,275.07394557834203L112.21756311910485,267.50419318352357L127.10176449647344,280.7734517596475L123.53391334154152,299.00455382265557Z"/><path class="polygons" fill="black" fill-opacity="0" cursor="pointer" d="M84.69860766098425,236.79272580144357L75.12165354966837,253.04683039805454L45.23340877315532,251.63374915678105L0,214.01491369668832L0,179.42543940406026L82.46441724152032,230.73507973943785L84.69860766098425,236.79272580144357Z"/><path class="polygons" fill="black" fill-opacity="0" cursor="pointer" d="M98.28107771824989,296.8985243435848L113.82954068381186,304.2062388644321L107.56521422398009,427.71872302801836L28.758205997087458,500L2.675279386158593,500L76.45120449852409,311.5820763587546L98.28107771824989,296.8985243435848Z"/><path class="polygons" fill="black" fill-opacity="0" cursor="pointer" d="M0,214.01491369668832L45.23340877315532,251.63374915678105L48.24256311140342,281.64718712524615L0,329.13316944144844L0,214.01491369668832Z"/><path class="polygons" fill="black" fill-opacity="0" cursor="pointer" d="M123.53391334154152,299.00455382265557L176.67521677259145,327.1438276323329L192.6769491387134,357.50734415360705L163.4396561232741,387.42022278626104L107.56521422398009,427.71872302801836L113.82954068381186,304.2062388644321L123.53391334154152,299.00455382265557Z"/><path class="polygons" fill="black" fill-opacity="0" cursor="pointer" d="M177.26759863741674,257.80794542362656L175.52560469899015,322.434492382569L142.62513912957607,277.25123585693933L158.54936068503852,244.56789291240128L162.74002362474707,243.9905367135451L173.03284061807918,250.32533619577066L177.26759863741674,257.80794542362656Z"/><path class="polygons" fill="black" fill-opacity="0" cursor="pointer" d="M0,0L18.2881654287797,0L54.48639510321131,35.29791703522781L108.70547695601275,178.04219353710928L82.46441724152032,230.73507973943785L0,179.42543940406026L0,0Z"/><path class="polygons" fill="black" fill-opacity="0" cursor="pointer" d="M123.31181303192993,207.3945522910455L107.94607911359343,240.08669598661436L84.69860766098425,236.79272580144357L82.46441724152032,230.73507973943785L108.70547695601275,178.04219353710928L120.65459316217984,193.84137556006556L123.31181303192993,207.3945522910455Z"/><path class="polygons" fill="black" fill-opacity="0" cursor="pointer" d="M142.62513912957607,277.25123585693933L175.52560469899015,322.434492382569L176.67521677259145,327.1438276323329L123.53391334154152,299.00455382265557L127.10176449647344,280.7734517596475L142.62513912957607,277.25123585693933Z"/><path class="polygons" fill="black" fill-opacity="0" cursor="pointer" d="M0,329.13316944144844L48.24256311140342,281.64718712524615L67.90655085807437,283.9418921134634L76.45120449852409,311.5820763587546L2.675279386158593,500L0,500L0,329.13316944144844Z"/><path class="polygons" fill="black" fill-opacity="0" cursor="pointer" d="M176.04496688913383,200.23045817246017L120.65459316217984,193.84137556006556L108.70547695601275,178.04219353710928L54.48639510321131,35.29791703522781L125.78069323516827,78.56668796867847L143.4538618937937,93.1471893541843L209.47451444974803,170.24821377348036L176.04496688913383,200.23045817246017Z"/><path class="polygons" fill="black" fill-opacity="0" cursor="pointer" d="M206.52760552042702,268.0952895848846L177.26759863741674,257.80794542362656L173.03284061807918,250.32533619577066L248.87117121212833,214.39403274448944L254.62248688773872,232.75240709962821L206.52760552042702,268.0952895848846Z"/><path class="polygons" fill="black" fill-opacity="0" cursor="pointer" d="M206.52760552042702,268.0952895848846L254.62248688773872,232.75240709962821L270.823770265996,258.1049981193758L280.6342035273545,301.6790769088866L271.6864800754335,309.8267625176768L217.08044443401457,338.9339892383029L206.52760552042702,268.0952895848846Z"/><path class="polygons" fill="black" fill-opacity="0" cursor="pointer" d="M206.52760552042702,268.0952895848846L217.08044443401457,338.9339892383029L196.162413604586,356.48556462675606L192.6769491387134,357.50734415360705L176.67521677259145,327.1438276323329L175.52560469899015,322.434492382569L177.26759863741674,257.80794542362656L206.52760552042702,268.0952895848846Z"/><path class="polygons" fill="black" fill-opacity="0" cursor="pointer" d="M248.87117121212833,214.39403274448944L173.03284061807918,250.32533619577066L162.74002362474707,243.9905367135451L176.04496688913383,200.23045817246017L209.47451444974803,170.24821377348036L247.5448219615559,183.88403637159075L248.87117121212833,214.39403274448944Z"/><path class="polygons" fill="black" fill-opacity="0" cursor="pointer" d="M344.889343839396,246.2756744678954L319.67112483448784,233.780575661231L325.4056338199123,203.4109785621358L351.2751475646823,214.89339451078968L352.9691923514031,236.04712406890187L344.889343839396,246.2756744678954Z"/><path class="polygons" fill="black" fill-opacity="0" cursor="pointer" d="M351.2751475646823,214.89339451078968L386.1051897272907,190.21277305110038L392.2387372175039,202.86048048492069L391.77826067889214,215.90956766917463L375.4822935066501,236.55801544902565L352.9691923514031,236.04712406890187L351.2751475646823,214.89339451078968Z"/><path class="polygons" fill="black" fill-opacity="0" cursor="pointer" d="M344.889343839396,246.2756744678954L352.9691923514031,236.04712406890187L375.4822935066501,236.55801544902565L386.8033789520923,266.59631567503413L386.75460591803784,266.7725891652664L385.6421285293152,267.82674864687976L345.43785100662467,256.81861306332075L344.889343839396,246.2756744678954Z"/><path class="polygons" fill="black" fill-opacity="0" cursor="pointer" d="M351.2751475646823,214.89339451078968L325.4056338199123,203.4109785621358L297.4727789917342,153.06997879306692L316.79521869984546,144.86999739743703L385.60248039784614,134.04974556202026L386.1051897272907,190.21277305110038L351.2751475646823,214.89339451078968Z"/><path class="polygons" fill="black" fill-opacity="0" cursor="pointer" d="M270.823770265996,258.1049981193758L319.67112483448784,233.780575661231L344.889343839396,246.2756744678954L345.43785100662467,256.81861306332075L315.2643408340664,308.3926306431022L280.6342035273545,301.6790769088866L270.823770265996,258.1049981193758Z"/><path class="polygons" fill="black" fill-opacity="0" cursor="pointer" d="M248.87117121212833,214.39403274448944L247.5448219615559,183.88403637159075L288.5338866586425,153.41752190776623L297.4727789917342,153.06997879306692L325.4056338199123,203.4109785621358L319.67112483448784,233.780575661231L270.823770265996,258.1049981193758L254.62248688773872,232.75240709962821L248.87117121212833,214.39403274448944Z"/><path class="polygons" fill="black" fill-opacity="0" cursor="pointer" d="M391.77826067889214,215.90956766917463L392.2387372175039,202.86048048492069L425.90062062103686,212.19017315989444L432.7529688586715,227.12313709670457L423.3557935509141,244.2193053624983L409.71134430263197,243.15284872889853L391.77826067889214,215.90956766917463Z"/><path class="polygons" fill="black" fill-opacity="0" cursor="pointer" d="M423.3557935509141,244.2193053624983L432.7529688586715,227.12313709670457L450.18808069157717,225.92689933245623L474.6862888710508,253.57880966121502L471.8625937437763,254.9996340475431L431.33195432652826,255.8948035698301L423.3557935509141,244.2193053624983Z"/><path class="polygons" fill="black" fill-opacity="0" cursor="pointer" d="M424.74913499647863,281.483165832037L431.33195432652826,255.8948035698301L471.8625937437763,254.9996340475431L435.32892195746274,308.30951196809673L424.74913499647863,281.483165832037Z"/><path class="polygons" fill="black" fill-opacity="0" cursor="pointer" d="M425.90062062103686,212.19017315989444L483.4948757226271,144.55917825986924L450.18808069157717,225.92689933245623L432.7529688586715,227.12313709670457L425.90062062103686,212.19017315989444Z"/><path class="polygons" fill="black" fill-opacity="0" cursor="pointer" d="M386.1051897272907,190.21277305110038L385.60248039784614,134.04974556202026L500,39.181611184517934L500,117.45526672253769L483.4948757226271,144.55917825986924L425.90062062103686,212.19017315989444L392.2387372175039,202.86048048492069L386.1051897272907,190.21277305110038Z"/><path class="polygons" fill="black" fill-opacity="0" cursor="pointer" d="M386.8033789520923,266.59631567503413L375.4822935066501,236.55801544902565L391.77826067889214,215.90956766917463L409.71134430263197,243.15284872889853L386.8033789520923,266.59631567503413Z"/><path class="polygons" fill="black" fill-opacity="0" cursor="pointer" d="M500,252.95581369183526L474.6862888710508,253.57880966121502L450.18808069157717,225.92689933245623L483.4948757226271,144.55917825986924L500,117.45526672253769L500,252.95581369183526Z"/><path class="polygons" fill="black" fill-opacity="0" cursor="pointer" d="M500,442.01807658056856L435.6690810505766,323.06211698199337L435.32892195746274,308.30951196809673L471.8625937437763,254.9996340475431L474.6862888710508,253.57880966121502L500,252.95581369183526L500,442.01807658056856Z"/><path class="polygons" fill="black" fill-opacity="0" cursor="pointer" d="M321.72938611740074,312.64253801132577L382.5572570732877,277.5324133847614L394.66333347833546,307.9732546493204L338.4639583730133,331.42671111167715L321.72938611740074,312.64253801132577Z"/><path class="polygons" fill="black" fill-opacity="0" cursor="pointer" d="M385.6421285293152,267.82674864687976L386.75460591803784,266.7725891652664L424.74913499647863,281.483165832037L435.32892195746274,308.30951196809673L435.6690810505766,323.06211698199337L394.66333347833546,307.9732546493204L382.5572570732877,277.5324133847614L385.6421285293152,267.82674864687976Z"/><path class="polygons" fill="black" fill-opacity="0" cursor="pointer" d="M338.4639583730133,331.42671111167715L394.66333347833546,307.9732546493204L435.6690810505766,323.06211698199337L500,442.01807658056856L500,500L454.6640574930467,500L376.719892545956,414.62815235079466L364.4508134251317,395.70494173691935L338.4639583730133,331.42671111167715Z"/><path class="polygons" fill="black" fill-opacity="0" cursor="pointer" d="M386.8033789520923,266.59631567503413L409.71134430263197,243.15284872889853L423.3557935509141,244.2193053624983L431.33195432652826,255.8948035698301L424.74913499647863,281.483165832037L386.75460591803784,266.7725891652664L386.8033789520923,266.59631567503413Z"/><path class="polygons" fill="black" fill-opacity="0" cursor="pointer" d="M321.72938611740074,312.64253801132577L315.2643408340664,308.3926306431022L345.43785100662467,256.81861306332075L385.6421285293152,267.82674864687976L382.5572570732877,277.5324133847614L321.72938611740074,312.64253801132577Z"/><path class="polygons" fill="black" fill-opacity="0" cursor="pointer" d="M210.89442466793437,366.683569099053L275.24819676569507,389.9440202309685L279.88897305264555,401.7604633609786L271.5754251012847,417.91402472225263L254.8377857453191,419.50744949514706L210.89442466793437,366.683569099053Z"/><path class="polygons" fill="black" fill-opacity="0" cursor="pointer" d="M327.1517720256373,500L271.5754251012847,417.91402472225263L279.88897305264555,401.7604633609786L376.719892545956,414.62815235079466L454.6640574930467,500L327.1517720256373,500Z"/><path class="polygons" fill="black" fill-opacity="0" cursor="pointer" d="M210.89442466793437,366.683569099053L254.8377857453191,419.50744949514706L243.35570021248836,444.18026823087723L163.4396561232741,387.42022278626104L192.6769491387134,357.50734415360705L196.162413604586,356.48556462675606L210.89442466793437,366.683569099053Z"/><path class="polygons" fill="black" fill-opacity="0" cursor="pointer" d="M280.6342035273545,301.6790769088866L315.2643408340664,308.3926306431022L321.72938611740074,312.64253801132577L338.4639583730133,331.42671111167715L364.4508134251317,395.70494173691935L288.5701789647155,373.8021761024512L271.6864800754335,309.8267625176768L280.6342035273545,301.6790769088866Z"/><path class="polygons" fill="black" fill-opacity="0" cursor="pointer" d="M217.08044443401457,338.9339892383029L271.6864800754335,309.8267625176768L288.5701789647155,373.8021761024512L275.24819676569507,389.9440202309685L210.89442466793437,366.683569099053L196.162413604586,356.48556462675606L217.08044443401457,338.9339892383029Z"/><path class="polygons" fill="black" fill-opacity="0" cursor="pointer" d="M28.758205997087458,500L107.56521422398009,427.71872302801836L163.4396561232741,387.42022278626104L243.35570021248836,444.18026823087723L256.1800822880817,500L28.758205997087458,500Z"/><path class="polygons" fill="black" fill-opacity="0" cursor="pointer" d="M288.5701789647155,373.8021761024512L364.4508134251317,395.70494173691935L376.719892545956,414.62815235079466L279.88897305264555,401.7604633609786L275.24819676569507,389.9440202309685L288.5701789647155,373.8021761024512Z"/><path class="polygons" fill="black" fill-opacity="0" cursor="pointer" d="M256.1800822880817,500L243.35570021248836,444.18026823087723L254.8377857453191,419.50744949514706L271.5754251012847,417.91402472225263L327.1517720256373,500L256.1800822880817,500Z"/><path class="polygons" fill="black" fill-opacity="0" cursor="pointer" d="M248.35539409687073,102.49190824445753L143.4538618937937,93.1471893541843L125.78069323516827,78.56668796867847L248.36461300351212,68.9060177955902L248.35539409687073,102.49190824445753Z"/><path class="polygons" fill="black" fill-opacity="0" cursor="pointer" d="M282.8917088287174,140.25238728694976L248.35539409687073,102.49190824445753L248.36461300351212,68.9060177955902L282.86756453798233,31.586747540228096L282.8917088287174,140.25238728694976Z"/><path class="polygons" fill="black" fill-opacity="0" cursor="pointer" d="M209.47451444974803,170.24821377348036L143.4538618937937,93.1471893541843L248.35539409687073,102.49190824445753L282.8917088287174,140.25238728694976L288.5338866586425,153.41752190776623L247.5448219615559,183.88403637159075L209.47451444974803,170.24821377348036Z"/><path class="polygons" fill="black" fill-opacity="0" cursor="pointer" d="M296.4757942875894,0L282.86756453798233,31.586747540228096L248.36461300351212,68.9060177955902L125.78069323516827,78.56668796867847L54.48639510321131,35.29791703522781L18.2881654287797,0L296.4757942875894,0Z"/><path class="polygons" fill="black" fill-opacity="0" cursor="pointer" d="M282.8917088287174,140.25238728694976L282.86756453798233,31.586747540228096L296.4757942875894,0L316.79521866334915,0L316.79521869984546,144.86999739743703L297.4727789917342,153.06997879306692L288.5338866586425,153.41752190776623L282.8917088287174,140.25238728694976Z"/><path class="polygons" fill="black" fill-opacity="0" cursor="pointer" d="M500,39.181611184517934L385.60248039784614,134.04974556202026L316.79521869984546,144.86999739743703L316.79521866334915,0L500,0L500,39.181611184517934Z"/></g><g><text class="clusterHeadingLabel" font-size="18px" font-weight="bold" padding="0" pointer-events="none" style="font-family: Nunito, sans-serif; text-anchor: middle; alignment-baseline: middle;" x="44.284912314022115" y="121.89114894025037">M4</text><text class="clusterHeadingLabel" font-size="18px" font-weight="bold" padding="0" pointer-events="none" style="font-family: Nunito, sans-serif; text-anchor: middle; alignment-baseline: middle;" x="426.29491675711995" y="401.3649779444283">M1</text><text class="clusterHeadingLabel" font-size="18px" font-weight="bold" padding="0" pointer-events="none" style="font-family: Nunito, sans-serif; text-anchor: middle; alignment-baseline: middle;" x="156.88619970322364" y="459.4849665465441">M3</text><text class="clusterHeadingLabel" font-size="18px" font-weight="bold" padding="0" pointer-events="none" style="font-family: Nunito, sans-serif; text-anchor: middle; alignment-baseline: middle;" x="392.21120155690693" y="58.52368799849851">M2</text></g><rect rx="1px" fill="white" opacity="0.5" pointer-events="none" x="429.8882751464844" y="175.3770294189453" width="56.593963623046875" height="16" style="display: none;"/><text font-size="18px" font-weight="bold" style="pointer-events: none; font-family: Nunito, sans-serif; display: none;" x="429.888289784132" y="189.3770311867459">MITD1</text><svg id="svg_footer" viewBox="0 0 500 500" width="500" height="100" y="480" preserveAspectRatio="xMaxYMax meet"><a id="svg_footer_link" href="https://hb.flatironinstitute.org/" rel="noopener noreferrer" target="_blank"><svg xmlns="http://www.w3.org/2000/svg" xmlns:xlink="http://www.w3.org/1999/xlink" version="1.1" id="Layer_1" x="0px" y="0px" viewBox="0 0 264.8 27.4" style="enable-background:new 0 0 264.8 27.4;" xml:space="preserve" width="500" height="100"/><svg xmlns="http://www.w3.org/2000/svg" xmlns:xlink="http://www.w3.org/1999/xlink" version="1.1" id="Layer_1" x="0px" y="0px" viewBox="0 0 264.8 27.4" style="enable-background:new 0 0 264.8 27.4;" xml:space="preserve" width="500" height="100">
<style type="text/css">
	.st0{fill:#FFFFFF;}
	.st1{fill:#5E94C0;}
	.st2{fill:#AAAAAA;}
</style>
<rect y="0" class="st0" width="264.8" height="27.4"/>
<title>Asset 2</title>
<g>
	<g id="Layer_1-2">
		<g id="Layer_1-2-2">
			<path class="st1" d="M66.1,13.4c0-3.8-0.8-5.6-4.3-5.6c-3.9,0-6.4,2.4-6.4,6.1v12.7h-3.6V0h3.6v8.1c1.4-2.4,4-3.7,6.7-3.6     c3.2,0,5.5,1,6.7,2.9c0.9,1.4,0.9,3.1,0.9,5.2v13.9h-3.6V13.4z"/>
			<path class="st1" d="M78.7,18.3c0,3.9,0.9,5.6,4.4,5.6c4.1,0,6.3-2.5,6.3-7.2V5.1H93v21.5h-3.5v-3.2c-1.5,2.5-3.9,3.7-7.1,3.7     c-3,0-5.3-1.1-6.5-2.9C75,22.8,75,21.1,75,19V5.1h3.7V18.3z"/>
			<path class="st1" d="M124.7,13.4c0-3.8-0.7-5.6-3.9-5.6c-3.5,0-5.5,2.2-5.5,6.2v12.7h-3.7V13.5c0-3.8-0.7-5.6-3.9-5.6     c-3.4,0-5.5,2.3-5.5,6.2v12.7h-3.6V5.3h3.5v3c1.4-2.3,4-3.7,6.7-3.6c2.5-0.1,4.8,1.2,5.9,3.4c1.6-2.2,4.2-3.5,6.9-3.4     c2.8,0,4.9,1.1,6,2.9c0.8,1.5,0.9,3.3,0.9,5.6v13.5h-3.6V13.4H124.7z"/>
			<path class="st1" d="M170.4,13.4c0-3.8-0.9-5.6-4.3-5.6c-4,0-6.4,2.3-6.4,6.6v12.2h-3.6V5.1h3.5v3.1c1.5-2.4,4.1-3.8,6.9-3.7     c3.2,0,5.5,1,6.7,2.9c0.9,1.4,0.9,3.1,0.9,5.2v13.9h-3.7V13.4z"/>
			<path class="st2" d="M179.6,0h3.5v8.1c1.5-2.4,4.1-3.8,6.9-3.7c5.6,0,9.4,4.4,9.4,11.5s-3.8,11.3-9.4,11.3     c-2.8,0.2-5.4-1.1-7-3.4v2.7h-3.5V0H179.6z M189.3,24.1c3.9,0,6.4-3,6.4-7.9c0-5.5-2.4-8.5-6.4-8.5c-4.2,0-6.4,2.7-6.4,8.1     S185.3,24.1,189.3,24.1z"/>
			<path class="st2" d="M220.5,11.1c0-4.6-2.6-6.7-8.4-6.7c-4.5,0-7.5,1.9-8.3,5.1l3.3,1c0.4-1.9,2.1-2.9,4.9-2.9     c3.2,0,4.8,1.1,4.8,3.3c0,1.4,0,1.9-1,2.3s-2.9,0.5-5.9,0.8c-4.9,0.6-7.4,2.8-7.4,6.7s2.5,6.5,7,6.5c2.9,0,5.7-1.3,7.6-3.5v2.9     h3.4L220.5,11.1z M216.8,18.9c0,3-2.7,5.2-6.7,5.2c-2.5,0-3.9-1.2-3.9-3.3s1.1-3.2,3.7-3.6s4.9-0.5,6.8-1.5L216.8,18.9     L216.8,18.9z"/>
			<path class="st2" d="M235.8,14.1l-3.5-0.8c-2.3-0.5-3.4-1.1-3.4-2.7c0-1.9,1.5-3,4.4-3c2.4,0,4.1,0.9,4.7,2.6l3.6-0.2     c-0.6-3.3-3.7-5.4-8.3-5.4c-5.1,0-8.1,2.5-8.1,6.2s1.8,5,6.1,6l4,1c2.2,0.5,3.3,1.1,3.3,2.9c0,2.1-1.8,3.4-5,3.4     c-2.9,0-4.7-1.2-5.3-3.4l-3.6,0.2c0.6,4.1,3.5,6.4,8.5,6.4c5.8,0,9-2.7,9-7.1C242.3,16.5,240.2,15.1,235.8,14.1z"/>
			<path class="st2" d="M261,19.9c-0.5,2.6-2.9,4.4-5.5,4.2c-3.8,0-6.1-2.5-6.2-7.1h15.5v-1.6c0-7-3.6-10.9-9.7-10.9     c-5.9,0-9.7,4.2-9.7,11.7c0,7,3.7,11.2,9.7,11.2c4.7,0,8.1-2.5,9.2-6.6L261,19.9z M255.3,7.7c3.7,0,5.8,2.2,5.8,6.3h-11.8     C249.6,9.8,251.7,7.7,255.3,7.7z"/>
			<path class="st1" d="M150.5,11.1c0-4.6-2.6-6.7-8.4-6.7c-4.5,0-7.5,1.9-8.3,5.1l3.3,1c0.4-1.9,2.1-2.9,4.9-2.9     c3.2,0,4.8,1.1,4.8,3.3c0,1.4,0,1.9-1,2.3s-2.9,0.5-5.9,0.8c-4.9,0.6-7.4,2.8-7.4,6.7s2.5,6.5,7,6.5c2.9,0,5.7-1.3,7.6-3.5v2.9     h3.4V11.1z M146.8,18.9c0,3-2.7,5.2-6.7,5.2c-2.5,0-3.9-1.2-3.9-3.3s1.1-3.2,3.7-3.6c2.6-0.4,4.9-0.5,6.8-1.5L146.8,18.9     L146.8,18.9z"/>
		</g>
	</g>
</g>
<g id="g3394" transform="translate(-236,-131)">
	<g id="g3396">
		<polygon id="polygon3398" class="st1" points="257.5,140.1 257.5,136.7 239.5,136.7 239.5,131 236,131 236,158.4 239.5,158.4     239.5,152.7 257.4,152.7 257.4,149.2 239.5,149.2 239.5,140.1   "/>
		<polygon id="polygon3400" class="st2" points="260.6,143 242.6,143 242.6,146.3 260.6,146.3 260.6,158.4 264.1,158.4 264.1,131     260.6,131   "/>
	</g>
</g>
</svg></a></svg></svg>