<svg xmlns="http://www.w3.org/2000/svg" id="svg_view" viewBox="0 0 500 500" width="500" height="500" cursor="pointer"><rect width="500" height="500" fill="white" visibility="visible"/><g transform="translate(7.890666533384682,-57.07486389071805) scale(1.0057946969048976)"><line class="edge&#10;           cluster0&#10;           clusterEdge0&#10;           internalEdge0" stroke="#566573" stroke-linecap="butt" opacity="0.5" visibility="visible" stroke-width="0.9942386881510417" x1="68.01020284919154" y1="235.69324036127244" x2="62.152838239802556" y2="227.07052847159306"/><line class="edge&#10;           cluster0&#10;           clusterEdge0&#10;           internalEdge0" stroke="#566573" stroke-linecap="butt" opacity="0.5" visibility="visible" stroke-width="0.9942386881510417" x1="65.68845858288984" y1="199.08731869845317" x2="60.966667104005445" y2="208.38504798745456"/><line class="edge&#10;           cluster0&#10;           clusterEdge0&#10;           internalEdge0" stroke="#566573" stroke-linecap="butt" opacity="0.5" visibility="visible" stroke-width="0.9942386881510417" x1="60.37186848173473" y1="248.1620362423927" x2="50.02430870656727" y2="246.86015480283595"/><line class="edge&#10;           cluster2&#10;           clusterEdge2&#10;           internalEdge2" stroke="#566573" stroke-linecap="butt" opacity="0.5" visibility="visible" stroke-width="0.9942386881510417" x1="405.1325596216144" y1="264.14094724999967" x2="396.2831666256925" y2="258.61969038481385"/><line class="edge&#10;           cluster2&#10;           clusterEdge2&#10;           internalEdge2" stroke="#566573" stroke-linecap="butt" opacity="0.5" visibility="visible" stroke-width="0.9942386881510417" x1="385.01822353966486" y1="265.75251717218276" x2="386.22624266490203" y2="276.1239890977991"/><line class="edge&#10;           cluster0&#10;           clusterEdge0&#10;           internalEdge0" stroke="#566573" stroke-linecap="butt" opacity="0.5" visibility="visible" stroke-width="0.9942386881510417" x1="95.24069267304294" y1="254.55105160601178" x2="105.37161004476215" y2="257.0010903222839"/><line class="edge&#10;           cluster0&#10;           clusterEdge0&#10;           internalEdge0" stroke="#566573" stroke-linecap="butt" opacity="0.5" visibility="visible" stroke-width="0.9942386881510417" x1="203.9335154884355" y1="250.00000032427428" x2="193.50237663942193" y2="250.00000014907994"/><line class="edge&#10;           cluster2&#10;           clusterEdge2&#10;           internalEdge2" stroke="#566573" stroke-linecap="butt" opacity="0.5" visibility="visible" stroke-width="0.9942386881510417" x1="403.3137026274592" y1="272.23558396653755" x2="368.6949054762031" y2="276.2611165787381"/><line class="edge&#10;           cluster0&#10;           clusterEdge0&#10;           internalEdge0" stroke="#566573" stroke-linecap="butt" opacity="0.5" visibility="visible" stroke-width="0.9942386881510417" x1="86.2510219174577" y1="266.08909834328153" x2="91.10403550044012" y2="275.3137059253292"/><line class="edge&#10;           cluster2&#10;           clusterEdge2&#10;           internalEdge2" stroke="#566573" stroke-linecap="butt" opacity="0.5" visibility="visible" stroke-width="0.9942386881510417" x1="419.8979019262956" y1="258.92645388737895" x2="423.3154136491205" y2="249.07799432958248"/><line class="edge&#10;           cluster2&#10;           clusterEdge2&#10;           internalEdge2" stroke="#566573" stroke-linecap="butt" opacity="0.5" visibility="visible" stroke-width="0.9942386881510417" x1="317.88177018573964" y1="245.28126103371605" x2="313.75298916017033" y2="235.7030671391636"/><line class="edge&#10;           cluster2&#10;           clusterEdge2&#10;           internalEdge2" stroke="#566573" stroke-linecap="butt" opacity="0.5" visibility="visible" stroke-width="0.9942386881510417" x1="361.2262182061661" y1="289.2251070876685" x2="365.38240604991796" y2="298.7955728531388"/><line class="edge&#10;           cluster0&#10;           clusterEdge0&#10;           internalEdge0" stroke="#566573" stroke-linecap="butt" opacity="0.5" visibility="visible" stroke-width="0.9942386881510417" x1="64.27847674571" y1="261.6594630876939" x2="56.22605035762149" y2="268.2868601869406"/><line class="edge&#10;           cluster2&#10;           clusterEdge2&#10;           internalEdge2" stroke="#566573" stroke-linecap="butt" opacity="0.5" visibility="visible" stroke-width="0.9942386881510417" x1="336.6165608404533" y1="289.68541450695847" x2="345.5125469134748" y2="284.25312494423247"/><line class="edge&#10;           cluster0&#10;           clusterEdge0&#10;           internalEdge0" stroke="#566573" stroke-linecap="butt" opacity="0.5" visibility="visible" stroke-width="0.9942386881510417" x1="106.80299357171002" y1="287.17695279988124" x2="117.00774051304406" y2="289.328019592504"/><line class="edge&#10;           cluster2&#10;           clusterEdge2&#10;           internalEdge2" stroke="#566573" stroke-linecap="butt" opacity="0.5" visibility="visible" stroke-width="0.9942386881510417" x1="368.54286882251455" y1="229.28034598995768" x2="374.4808080378442" y2="237.84634851811623"/><line class="edge&#10;           cluster0&#10;           clusterEdge0&#10;           internalEdge0" stroke="#566573" stroke-linecap="butt" opacity="0.5" visibility="visible" stroke-width="0.9942386881510417" x1="154.9079005754272" y1="304.47156010516994" x2="145.67023620007035" y2="299.63278451788545"/><line class="edge&#10;           cluster0&#10;           clusterEdge0&#10;           internalEdge0" stroke="#566573" stroke-linecap="butt" opacity="0.5" visibility="visible" stroke-width="0.9942386881510417" x1="117.79420400600739" y1="314.00773545843106" x2="123.55712024963103" y2="305.3136449837264"/><line class="edge&#10;           cluster0&#10;           clusterEdge0&#10;           internalEdge0" stroke="#566573" stroke-linecap="butt" opacity="0.5" visibility="visible" stroke-width="0.9942386881510417" x1="138.47168366609714" y1="317.49202611913495" x2="135.87654157547425" y2="307.3897522078644"/><line class="edge&#10;           cluster2&#10;           clusterEdge2&#10;           internalEdge2" stroke="#566573" stroke-linecap="butt" opacity="0.5" visibility="visible" stroke-width="0.9942386881510417" x1="367.9549566642301" y1="248.82438960690803" x2="357.59145288389925" y2="247.70074473828532"/><line class="edge&#10;           cluster0&#10;           clusterEdge0&#10;           internalEdge0" stroke="#566573" stroke-linecap="butt" opacity="0.5" visibility="visible" stroke-width="0.9942386881510417" x1="84.05756275379555" y1="222.8554573405536" x2="81.810129132112" y2="233.04242975276125"/><line class="edge&#10;           cluster2&#10;           clusterEdge2&#10;           internalEdge2" stroke="#566573" stroke-linecap="butt" opacity="0.5" visibility="visible" stroke-width="0.9942386881510417" x1="300.6660182990219" y1="233.75027797083035" x2="293.919133357459" y2="241.70799928391378"/><line class="edge&#10;           cluster2&#10;           clusterEdge2&#10;           internalEdge2" stroke="#566573" stroke-linecap="butt" opacity="0.5" visibility="visible" stroke-width="0.9942386881510417" x1="447.1154922553563" y1="232.15937993281486" x2="437.20741816975107" y2="235.4145009775078"/><line class="edge&#10;           cluster1&#10;           clusterEdge1&#10;           internalEdge1" stroke="#566573" stroke-linecap="butt" opacity="0.5" visibility="visible" stroke-width="0.9942386881510417" x1="247.00460456624324" y1="387.4994192445511" x2="237.62896352261328" y2="382.9288442310063"/><line class="edge&#10;           cluster2&#10;           clusterEdge2&#10;           internalEdge2" stroke="#566573" stroke-linecap="butt" opacity="0.5" visibility="visible" stroke-width="0.9942386881510417" x1="327.8783647872012" y1="306.2087970373074" x2="328.39633347186435" y2="316.625460534014"/><line class="edge&#10;            cluster2&#10;            cluster0&#10;            clusterEdge2&#10;            clusterEdge0" stroke="#566573" stroke-linecap="butt" opacity="0.5" visibility="visible" stroke-width="0.9942386881510417" x1="297.0754452933714" y1="228.70190994442925" x2="146.39120205157008" y2="286.9553706279863"/><line class="edge&#10;           cluster2&#10;           clusterEdge2&#10;           internalEdge2" stroke="#566573" stroke-linecap="butt" opacity="0.5" visibility="visible" stroke-width="0.9942386881510417" x1="307.94791636602076" y1="323.85035479568154" x2="318.22434279750905" y2="325.62909933272147"/><line class="edge&#10;           cluster2&#10;           clusterEdge2&#10;           internalEdge2" stroke="#566573" stroke-linecap="butt" opacity="0.5" visibility="visible" stroke-width="0.9942386881510417" x1="386.75680942355825" y1="235.51517733374598" x2="389.142112645482" y2="225.36541722132225"/><line class="edge&#10;           cluster0&#10;           clusterEdge0&#10;           internalEdge0" stroke="#566573" stroke-linecap="butt" opacity="0.5" visibility="visible" stroke-width="0.9942386881510417" x1="92.88187024601488" y1="240.7213487171687" x2="101.75311729475258" y2="234.97042824040724"/><line class="edge&#10;           cluster0&#10;           clusterEdge0&#10;           internalEdge0" stroke="#566573" stroke-linecap="butt" opacity="0.5" visibility="visible" stroke-width="0.9942386881510417" x1="34.55988037254594" y1="235.69004023320338" x2="29.696144011104042" y2="225.4879988432868"/><line class="edge&#10;           cluster0&#10;           clusterEdge0&#10;           internalEdge0" stroke="#566573" stroke-linecap="butt" opacity="0.5" visibility="visible" stroke-width="0.9942386881510417" x1="126.8071016601558" y1="259.77763121571076" x2="137.2333317196623" y2="259.98976930541636"/><line class="edge&#10;           cluster2&#10;           clusterEdge2&#10;           internalEdge2" stroke="#566573" stroke-linecap="butt" opacity="0.5" visibility="visible" stroke-width="0.9942386881510417" x1="279.9374965508626" y1="229.86309431133736" x2="283.34147656257693" y2="239.72387858514375"/><line class="edge&#10;           cluster1&#10;           clusterEdge1&#10;           internalEdge1" stroke="#566573" stroke-linecap="butt" opacity="0.5" visibility="visible" stroke-width="0.9942386881510417" x1="261.50040223329916" y1="402.05431062471934" x2="266.0322583419408" y2="411.4473531367398"/><line class="edge&#10;           cluster1&#10;           clusterEdge1&#10;           internalEdge1" stroke="#566573" stroke-linecap="butt" opacity="0.5" visibility="visible" stroke-width="0.9942386881510417" x1="227.099212826275" y1="367.32039116259085" x2="225.79914692313224" y2="348.71759892530207"/><circle r="17.752551415614523" cx="77.98555937136415" cy="250.37810821970365" name="GADD45B" entrez="4616" stroke-opacity="0.5" fill-opacity="1" stroke="black" fill="#7b707d" id="node_5" class="node cluster0 nCluster0 graph_0 anchor" stroke-width="0.9942386881510417"/><circle r="15.374160507911574" cx="132.0513193936147" cy="292.49906765065083" name="FURIN" entrez="5045" stroke-opacity="0.5" fill-opacity="1" stroke="black" fill="#7b707d" id="node_1" class="node cluster0 nCluster0 graph_0" stroke-width="0.9942386881510417"/><circle r="10.87117315019469" cx="115.9381780529668" cy="259.5564858277781" name="CSRNP1" entrez="64651" stroke-opacity="0.5" fill-opacity="1" stroke="black" fill="#7b707d" id="node_3" class="node cluster0 nCluster0 graph_0" stroke-width="0.9942386881510417"/><circle r="10.87117315019469" cx="56.04420486938579" cy="218.07792017325465" name="IER3" entrez="8870" stroke-opacity="0.5" fill-opacity="1" stroke="black" fill="#7b707d" id="node_2" class="node cluster0 nCluster0 graph_0" stroke-width="0.9942386881510417"/><circle r="10.87117315019469" cx="39.238169914892076" cy="245.50309340841284" name="KDM6B" entrez="23135" stroke-opacity="0.5" fill-opacity="1" stroke="black" fill="#7b707d" id="node_23" class="node cluster0 nCluster0 graph_0" stroke-width="0.9942386881510417"/><circle r="10.87117315019469" cx="96.16557693194379" cy="284.93468321449717" name="RIN3" entrez="79890" stroke-opacity="0.5" fill-opacity="1" stroke="black" fill="#7b707d" id="node_0" class="node cluster0 nCluster0 graph_0" stroke-width="0.9942386881510417"/><circle r="8.876275707807263" cx="85.96984763416948" cy="214.18761810708241" name="AGTRAP" entrez="57085" stroke-opacity="0.5" fill-opacity="1" stroke="black" fill="#7b707d" id="node_19" class="node cluster0 nCluster0 graph_0" stroke-width="0.9942386881510417"/><circle r="8.876275707807263" cx="162.77078585970548" cy="308.5902134587904" name="ECE1" entrez="1889" stroke-opacity="0.5" fill-opacity="1" stroke="black" fill="#7b707d" id="node_10" class="node cluster0 nCluster0 graph_0" stroke-width="0.9942386881510417"/><circle r="8.876275707807263" cx="112.89007584367813" cy="321.40623513123353" name="MIIP" entrez="60672" stroke-opacity="0.5" fill-opacity="1" stroke="black" fill="#7b707d" id="node_37" class="node cluster0 nCluster0 graph_0" stroke-width="0.9942386881510417"/><circle r="8.876275707807263" cx="49.37250904479441" cy="273.9275376209357" name="PIK3IP1" entrez="113791" stroke-opacity="0.5" fill-opacity="1" stroke="black" fill="#7b707d" id="node_6" class="node cluster0 nCluster0 graph_0" stroke-width="0.9942386881510417"/><circle r="8.876275707807263" cx="109.20127273207795" cy="230.14204848913977" name="PLEKHG2" entrez="64857" stroke-opacity="0.5" fill-opacity="1" stroke="black" fill="#7b707d" id="node_34" class="node cluster0 nCluster0 graph_0" stroke-width="0.9942386881510417"/><circle r="8.876275707807263" cx="146.10777068329674" cy="260.17033375855135" name="RIPK1" entrez="8737" stroke-opacity="0.5" fill-opacity="1" stroke="black" fill="#7b707d" id="node_40" class="node cluster0 nCluster0 graph_0" stroke-width="0.9942386881510417"/><circle r="8.876275707807263" cx="140.6801767225039" cy="326.08916685666" name="STIM1" entrez="6786" stroke-opacity="0.5" fill-opacity="1" stroke="black" fill="#7b707d" id="node_11" class="node cluster0 nCluster0 graph_0" stroke-width="0.9942386881510417"/><circle r="8.876275707807263" cx="25.876336595188484" cy="217.4756744772663" name="WWC3" entrez="55841" stroke-opacity="0.5" fill-opacity="1" stroke="black" fill="#7b707d" id="node_24" class="node cluster0 nCluster0 graph_0" stroke-width="0.9942386881510417"/><circle r="8.876275707807263" cx="69.70763216720265" cy="191.17312169937793" name="ZC3H12A" entrez="80149" stroke-opacity="0.5" fill-opacity="1" stroke="black" fill="#7b707d" id="node_4" class="node cluster0 nCluster0 graph_0" stroke-width="0.9942386881510417"/><circle r="8.876275707807263" cx="184.62610093161467" cy="250" name="DUSP2" entrez="1844" stroke-opacity="0.5" fill-opacity="1" stroke="black" fill="#7b707d" id="node_7" class="node cluster0 nCluster0 graph_4 anchor" stroke-width="0.9942386881510417"/><circle r="8.876275707807263" cx="212.80979119624274" cy="250.00000047335422" name="EGR3" entrez="1960" stroke-opacity="0.5" fill-opacity="1" stroke="black" fill="#7b707d" id="node_12" class="node cluster0 nCluster0 graph_4" stroke-width="0.9942386881510417"/><circle r="10.87117315019469" cx="286.8888325256354" cy="250" name="COPS7B" entrez="64708" stroke-opacity="0.5" fill-opacity="1" stroke="black" fill="#b6abb9" id="node_36" class="node cluster2 nCluster2 graph_1 anchor" stroke-width="0.9942386881510417"/><circle r="12.552949489343874" cx="308.7839104544967" cy="224.17550027972447" name="OTUB1" entrez="55611" stroke-opacity="0.5" fill-opacity="1" stroke="black" fill="#b6abb9" id="node_38" class="node cluster2 nCluster2 graph_1" stroke-width="0.9942386881510417"/><circle r="8.876275707807263" cx="321.39543943477116" cy="253.43248173060678" name="ASPSCR1" entrez="79058" stroke-opacity="0.5" fill-opacity="1" stroke="black" fill="#b6abb9" id="node_35" class="node cluster2 nCluster2 graph_1" stroke-width="0.9942386881510417"/><circle r="8.876275707807263" cx="277.04109253569175" cy="221.47267631090904" name="PMS2" entrez="5395" stroke-opacity="0.5" fill-opacity="1" stroke="black" fill="#b6abb9" id="node_22" class="node cluster2 nCluster2 graph_1" stroke-width="0.9942386881510417"/><circle r="15.374160507911574" cx="383.23953991234777" cy="250.48159395592168" name="HNRNPR" entrez="10236" stroke-opacity="0.5" fill-opacity="1" stroke="black" fill="#b6abb9" id="node_15" class="node cluster2 nCluster2 graph_3 anchor" stroke-width="0.9942386881510417"/><circle r="12.552949489343874" cx="415.7826362359579" cy="270.78567515945025" name="MCM7" entrez="4176" stroke-opacity="0.5" fill-opacity="1" stroke="black" fill="#b6abb9" id="node_21" class="node cluster2 nCluster2 graph_3" stroke-width="0.9942386881510417"/><circle r="12.552949489343874" cx="356.22597186770435" cy="277.7110253858254" name="MRM2" entrez="29960" stroke-opacity="0.5" fill-opacity="1" stroke="black" fill="#b6abb9" id="node_18" class="node cluster2 nCluster2 graph_3" stroke-width="0.9942386881510417"/><circle r="10.87117315019469" cx="426.8793382802755" cy="238.80760743886793" name="CDK5RAP1" entrez="51654" stroke-opacity="0.5" fill-opacity="1" stroke="black" fill="#b6abb9" id="node_31" class="node cluster2 nCluster2 graph_3" stroke-width="0.9942386881510417"/><circle r="10.87117315019469" cx="327.3384626685524" cy="295.351038918626" name="TMEM203" entrez="94107" stroke-opacity="0.5" fill-opacity="1" stroke="black" fill="#b6abb9" id="node_30" class="node cluster2 nCluster2 graph_3" stroke-width="0.9942386881510417"/><circle r="10.87117315019469" cx="328.93623559051315" cy="327.4832186526954" name="UPRT" entrez="139596" stroke-opacity="0.5" fill-opacity="1" stroke="black" fill="#b6abb9" id="node_16" class="node cluster2 nCluster2 graph_3" stroke-width="0.9942386881510417"/><circle r="8.876275707807263" cx="391.17280914459184" cy="216.72455255570503" name="EIF1AD" entrez="84285" stroke-opacity="0.5" fill-opacity="1" stroke="black" fill="#b6abb9" id="node_43" class="node cluster2 nCluster2 graph_3" stroke-width="0.9942386881510417"/><circle r="8.876275707807263" cx="387.25316613593674" cy="284.94066072748154" name="MPHOSPH10" entrez="10199" stroke-opacity="0.5" fill-opacity="1" stroke="black" fill="#b6abb9" id="node_17" class="node cluster2 nCluster2 graph_3" stroke-width="0.9942386881510417"/><circle r="8.876275707807263" cx="348.7668946311473" cy="246.74395736128005" name="SLC25A33" entrez="84275" stroke-opacity="0.5" fill-opacity="1" stroke="black" fill="#b6abb9" id="node_14" class="node cluster2 nCluster2 graph_3" stroke-width="0.9942386881510417"/><circle r="8.876275707807263" cx="299.2016925252686" cy="322.33647271029076" name="STARD3NL" entrez="83930" stroke-opacity="0.5" fill-opacity="1" stroke="black" fill="#b6abb9" id="node_13" class="node cluster2 nCluster2 graph_3" stroke-width="0.9942386881510417"/><circle r="8.876275707807263" cx="455.5483341726615" cy="229.38892010839052" name="TFIP11" entrez="24144" stroke-opacity="0.5" fill-opacity="1" stroke="black" fill="#b6abb9" id="node_20" class="node cluster2 nCluster2 graph_3" stroke-width="0.9942386881510417"/><circle r="8.876275707807263" cx="368.91811414344744" cy="306.93725810364805" name="UBL4A" entrez="8266" stroke-opacity="0.5" fill-opacity="1" stroke="black" fill="#b6abb9" id="node_39" class="node cluster2 nCluster2 graph_3" stroke-width="0.9942386881510417"/><circle r="8.876275707807263" cx="363.48601261701015" cy="221.9853836351637" name="ZNF830" entrez="91603" stroke-opacity="0.5" fill-opacity="1" stroke="black" fill="#b6abb9" id="node_44" class="node cluster2 nCluster2 graph_3" stroke-width="0.9942386881510417"/><circle r="10.87117315019469" cx="227.8571019639972" cy="378.1651138292355" name="BCOR" entrez="54880" stroke-opacity="0.5" fill-opacity="1" stroke="black" fill="#6e9a87" id="node_8" class="node cluster1 nCluster1 graph_2 anchor" stroke-width="0.9942386881510417"/><circle r="10.87117315019469" cx="256.7764661248593" cy="392.2631496463219" name="SETD1B" entrez="23067" stroke-opacity="0.5" fill-opacity="1" stroke="black" fill="#6e9a87" id="node_32" class="node cluster1 nCluster1 graph_2" stroke-width="0.9942386881510417"/><circle r="8.876275707807263" cx="269.88933602300295" cy="419.4418025989143" name="IP6K1" entrez="9807" stroke-opacity="0.5" fill-opacity="1" stroke="black" fill="#6e9a87" id="node_33" class="node cluster1 nCluster1 graph_2" stroke-width="0.9942386881510417"/><circle r="8.876275707807263" cx="225.1803330334598" cy="339.8629199468773" name="IVNS1ABP" entrez="10625" stroke-opacity="0.5" fill-opacity="1" stroke="black" fill="#6e9a87" id="node_9" class="node cluster1 nCluster1 graph_2" stroke-width="0.9942386881510417"/></g><g><path class="polygons" fill="black" fill-opacity="0" cursor="pointer" d="M103.3275189370394,207.99915026503984L82.22841271133328,219.09927004698193L65.95795814711953,199.3303267171848L67.9497484861104,183.49926179369533L81.15736089677542,174.52739743146944L97.90682528759272,178.2226375768147L107.09931263000924,192.40277213727282L103.3275189370394,207.99915026503984Z"/><path class="polygons" fill="black" fill-opacity="0" cursor="pointer" d="M152.55688670081148,252.08222784333583L137.535008456167,255.94115196826945L120.29920997124789,244.5163268701687L124.51676708308415,224.5080671617684L139.40981674687137,217.2234585808079L164.99026545686033,228.34577263307708L152.55688670081148,252.08222784333583Z"/><path class="polygons" fill="black" fill-opacity="0" cursor="pointer" d="M140.0684709114721,184.85171497121058L139.40981674687137,217.2234585808079L124.51676708308415,224.5080671617684L103.3275189370394,207.99915026503984L107.09931263000924,192.40277213727282L140.0684709114721,184.85171497121058Z"/><path class="polygons" fill="black" fill-opacity="0" cursor="pointer" d="M81.15736089677542,174.52739743146944L67.9497484861104,183.49926179369533L48.89152135867483,171.82045748759322L49.57093054231905,137.78729312794923L78.2762885295036,152.3651228893029L81.15736089677542,174.52739743146944Z"/><path class="polygons" fill="black" fill-opacity="0" cursor="pointer" d="M65.95795814711953,199.3303267171848L0,222.84671673631917L0,195.12907398011507L48.89152135867483,171.82045748759322L67.9497484861104,183.49926179369533L65.95795814711953,199.3303267171848Z"/><path class="polygons" fill="black" fill-opacity="0" cursor="pointer" d="M120.29920997124789,244.5163268701687L70.92349957923349,267.1581935119447L82.22841271133328,219.09927004698193L103.3275189370394,207.99915026503984L124.51676708308415,224.5080671617684L120.29920997124789,244.5163268701687Z"/><path class="polygons" fill="black" fill-opacity="0" cursor="pointer" d="M150.9133643335326,101.03922130580872L97.90682528759272,178.2226375768147L81.15736089677542,174.52739743146944L78.2762885295036,152.3651228893029L150.9133643335326,101.03922130580872Z"/><path class="polygons" fill="black" fill-opacity="0" cursor="pointer" d="M216.98421795139254,241.10337015359755L188.6508214147293,297.6470674003064L152.55688670081148,252.08222784333583L164.99026545686033,228.34577263307708L180.4321756092468,223.03165816573596L207.7601222117905,233.22552584445657L216.98421795139254,241.10337015359755Z"/><path class="polygons" fill="black" fill-opacity="0" cursor="pointer" d="M0,500L0,362.0404956466544L70.92349957923349,267.1581935119447L120.29920997124789,244.5163268701687L137.535008456167,255.94115196826945L105.99217683426532,443.1269842999677L77.9141382153541,500L0,500Z"/><path class="polygons" fill="black" fill-opacity="0" cursor="pointer" d="M0,222.84671673631917L65.95795814711953,199.3303267171848L82.22841271133328,219.09927004698193L70.92349957923349,267.1581935119447L0,362.0404956466544L0,222.84671673631917Z"/><path class="polygons" fill="black" fill-opacity="0" cursor="pointer" d="M140.0684709114721,184.85171497121058L107.09931263000924,192.40277213727282L97.90682528759272,178.2226375768147L150.9133643335326,101.03922130580872L187.31170950680496,64.1507750525967L162.93165330634733,156.75154252898517L140.0684709114721,184.85171497121058Z"/><path class="polygons" fill="black" fill-opacity="0" cursor="pointer" d="M164.99026545686033,228.34577263307708L139.40981674687137,217.2234585808079L140.0684709114721,184.85171497121058L162.93165330634733,156.75154252898517L180.4321756092468,223.03165816573596L164.99026545686033,228.34577263307708Z"/><path class="polygons" fill="black" fill-opacity="0" cursor="pointer" d="M187.05773247121192,307.4204576928974L105.99217683426532,443.1269842999677L137.535008456167,255.94115196826945L152.55688670081148,252.08222784333583L188.6508214147293,297.6470674003064L187.05773247121192,307.4204576928974Z"/><path class="polygons" fill="black" fill-opacity="0" cursor="pointer" d="M0,55.180934470369365L49.57093054231905,137.78729312794923L48.89152135867483,171.82045748759322L0,195.12907398011507L0,55.180934470369365Z"/><path class="polygons" fill="black" fill-opacity="0" cursor="pointer" d="M0,0L204.2553963542513,0L197.90452338729864,43.45768396535685L187.31170950680496,64.1507750525967L150.9133643335326,101.03922130580872L78.2762885295036,152.3651228893029L49.57093054231905,137.78729312794923L0,55.180934470369365L0,0Z"/><path class="polygons" fill="black" fill-opacity="0" cursor="pointer" d="M207.76012486277077,75.3851559404858L207.7601222117905,233.22552584445657L180.4321756092468,223.03165816573596L162.93165330634733,156.75154252898517L187.31170950680496,64.1507750525967L197.90452338729864,43.45768396535685L207.76012486277077,75.3851559404858Z"/><path class="polygons" fill="black" fill-opacity="0" cursor="pointer" d="M216.98421795139254,241.10337015359755L207.7601222117905,233.22552584445657L207.76012486277077,75.3851559404858L259.18777940803557,191.178181513721L259.18777968992674,235.29362204809632L216.98421795139254,241.10337015359755Z"/><path class="polygons" fill="black" fill-opacity="0" cursor="pointer" d="M262.5174991091566,237.58012675117186L259.18777968992674,235.29362204809632L259.18777940803557,191.178181513721L301.6946512862291,176.5046486368051L314.65166382044197,187.4901392459063L311.20310088413476,222.15840989786147L301.31732909653743,230.97575613778108L262.5174991091566,237.58012675117186Z"/><path class="polygons" fill="black" fill-opacity="0" cursor="pointer" d="M301.6946512862291,176.5046486368051L316.72359409033635,0L339.27528154865263,0L345.94864337933444,166.6792138838741L340.48825743180237,176.35300434946197L314.65166382044197,187.4901392459063L301.6946512862291,176.5046486368051Z"/><path class="polygons" fill="black" fill-opacity="0" cursor="pointer" d="M311.20310088413476,222.15840989786147L314.65166382044197,187.4901392459063L340.48825743180237,176.35300434946197L348.70492066557847,209.97806380179864L343.3960863706532,217.59423418320108L311.20310088413476,222.15840989786147Z"/><path class="polygons" fill="black" fill-opacity="0" cursor="pointer" d="M207.76012486277077,75.3851559404858L197.90452338729864,43.45768396535685L204.2553963542513,0L316.72359409033635,0L301.6946512862291,176.5046486368051L259.18777940803557,191.178181513721L207.76012486277077,75.3851559404858Z"/><path class="polygons" fill="black" fill-opacity="0" cursor="pointer" d="M374.854543361848,203.67937077591395L376.8728971897045,185.0638650150282L389.79253212290376,176.10799479838943L413.33181618540164,181.63998072654218L416.6336330005444,193.9828611856014L406.05175975242224,210.943339078983L384.6851269049506,213.43202162151746L374.854543361848,203.67937077591395Z"/><path class="polygons" fill="black" fill-opacity="0" cursor="pointer" d="M500,359.83410381781016L443.7373782654075,286.8989606089136L406.05175975242224,210.943339078983L416.6336330005444,193.9828611856014L461.9539614952671,209.70945812231514L500,246.25645976535031L500,359.83410381781016Z"/><path class="polygons" fill="black" fill-opacity="0" cursor="pointer" d="M343.3960863706532,217.59423418320108L348.70492066557847,209.97806380179864L374.854543361848,203.67937077591395L384.6851269049506,213.43202162151746L379.9546843913615,233.73351013479711L358.8485185880347,242.8993325607538L343.3960863706532,217.59423418320108Z"/><path class="polygons" fill="black" fill-opacity="0" cursor="pointer" d="M413.33181618540164,181.63998072654218L439.06337140972823,140.0341190744756L461.9539614952671,209.70945812231514L416.6336330005444,193.9828611856014L413.33181618540164,181.63998072654218Z"/><path class="polygons" fill="black" fill-opacity="0" cursor="pointer" d="M326.0260988279538,256.7387281108656L301.31732909653743,230.97575613778108L311.20310088413476,222.15840989786147L343.3960863706532,217.59423418320108L358.8485185880347,242.8993325607538L355.3991455666115,255.27815310154705L326.0260988279538,256.7387281108656Z"/><path class="polygons" fill="black" fill-opacity="0" cursor="pointer" d="M315.2278676488705,319.12386886115917L326.0260988279538,256.7387281108656L355.3991455666115,255.27815310154705L426.75746665265694,394.1394986489003L322.43851999649485,327.15597082731813L315.2278676488705,319.12386886115917Z"/><path class="polygons" fill="black" fill-opacity="0" cursor="pointer" d="M466.6117844611544,0L439.06337140972823,140.0341190744756L413.33181618540164,181.63998072654218L389.79253212290376,176.10799479838943L356.32985212474784,0L466.6117844611544,0Z"/><path class="polygons" fill="black" fill-opacity="0" cursor="pointer" d="M379.9546843913615,233.73351013479711L384.6851269049506,213.43202162151746L406.05175975242224,210.943339078983L443.7373782654075,286.8989606089136L379.9546843913615,233.73351013479711Z"/><path class="polygons" fill="black" fill-opacity="0" cursor="pointer" d="M340.48825743180237,176.35300434946197L345.94864337933444,166.6792138838741L376.8728971897045,185.0638650150282L374.854543361848,203.67937077591395L348.70492066557847,209.97806380179864L340.48825743180237,176.35300434946197Z"/><path class="polygons" fill="black" fill-opacity="0" cursor="pointer" d="M276.2216597465182,295.45840563898173L262.5174991091566,237.58012675117186L301.31732909653743,230.97575613778108L326.0260988279538,256.7387281108656L315.2278676488705,319.12386886115917L276.2216597465182,295.45840563898173Z"/><path class="polygons" fill="black" fill-opacity="0" cursor="pointer" d="M500,0L500,246.25645976535031L461.9539614952671,209.70945812231514L439.06337140972823,140.0341190744756L466.6117844611544,0L500,0Z"/><path class="polygons" fill="black" fill-opacity="0" cursor="pointer" d="M355.3991455666115,255.27815310154705L358.8485185880347,242.8993325607538L379.9546843913615,233.73351013479711L443.7373782654075,286.8989606089136L500,359.83410381781016L500,458.6090595575129L426.75746665265694,394.1394986489003L355.3991455666115,255.27815310154705Z"/><path class="polygons" fill="black" fill-opacity="0" cursor="pointer" d="M345.94864337933444,166.6792138838741L339.27528154865263,0L356.32985212474784,0L389.79253212290376,176.10799479838943L376.8728971897045,185.0638650150282L345.94864337933444,166.6792138838741Z"/><path class="polygons" fill="black" fill-opacity="0" cursor="pointer" d="M265.47156432662734,301.94046588147177L231.87955502075354,370.8479053727415L105.04901809526626,500L77.9141382153541,500L105.99217683426532,443.1269842999677L187.05773247121192,307.4204576928974L265.47156432662734,301.94046588147177Z"/><path class="polygons" fill="black" fill-opacity="0" cursor="pointer" d="M265.47156432662734,301.94046588147177L276.2216597465182,295.45840563898173L315.2278676488705,319.12386886115917L322.43851999649485,327.15597082731813L231.87955502075354,370.8479053727415L265.47156432662734,301.94046588147177Z"/><path class="polygons" fill="black" fill-opacity="0" cursor="pointer" d="M105.04901809526626,500L231.87955502075354,370.8479053727415L322.43851999649485,327.15597082731813L426.75746665265694,394.1394986489003L500,458.6090595575129L500,500L105.04901809526626,500Z"/><path class="polygons" fill="black" fill-opacity="0" cursor="pointer" d="M265.47156432662734,301.94046588147177L187.05773247121192,307.4204576928974L188.6508214147293,297.6470674003064L216.98421795139254,241.10337015359755L259.18777968992674,235.29362204809632L262.5174991091566,237.58012675117186L276.2216597465182,295.45840563898173L265.47156432662734,301.94046588147177Z"/></g><g><text class="clusterHeadingLabel" font-size="18px" font-weight="bold" padding="0" pointer-events="none" style="font-family: Nunito, sans-serif; text-anchor: middle; alignment-baseline: middle;" x="64.57041554093405" y="381.5855091426977">M1</text><text class="clusterHeadingLabel" font-size="18px" font-weight="bold" padding="0" pointer-events="none" style="font-family: Nunito, sans-serif; text-anchor: middle; alignment-baseline: middle;" x="262.32516211001547" y="78.94388891155992">M3</text><text class="clusterHeadingLabel" font-size="18px" font-weight="bold" padding="0" pointer-events="none" style="font-family: Nunito, sans-serif; text-anchor: middle; alignment-baseline: middle;" x="316.49148836105803" y="436.9341610286019">M2</text></g><text font-size="18px" font-weight="bold" style="pointer-events: none; font-family: Nunito, sans-serif;"/><rect rx="1px" fill="white" opacity="0.5" pointer-events="none"/><svg id="svg_footer" viewBox="0 0 500 500" width="500" height="100" y="480" preserveAspectRatio="xMaxYMax meet"><a id="svg_footer_link" href="https://hb.flatironinstitute.org/" rel="noopener noreferrer" target="_blank"><svg xmlns="http://www.w3.org/2000/svg" xmlns:xlink="http://www.w3.org/1999/xlink" version="1.1" id="Layer_1" x="0px" y="0px" viewBox="0 0 264.8 27.4" style="enable-background:new 0 0 264.8 27.4;" xml:space="preserve" width="500" height="100"/><svg xmlns="http://www.w3.org/2000/svg" xmlns:xlink="http://www.w3.org/1999/xlink" version="1.1" id="Layer_1" x="0px" y="0px" viewBox="0 0 264.8 27.4" style="enable-background:new 0 0 264.8 27.4;" xml:space="preserve" width="500" height="100">
<style type="text/css">
	.st0{fill:#FFFFFF;}
	.st1{fill:#5E94C0;}
	.st2{fill:#AAAAAA;}
</style>
<rect y="0" class="st0" width="264.8" height="27.4"/>
<title>Asset 2</title>
<g>
	<g id="Layer_1-2">
		<g id="Layer_1-2-2">
			<path class="st1" d="M66.1,13.4c0-3.8-0.8-5.6-4.3-5.6c-3.9,0-6.4,2.4-6.4,6.1v12.7h-3.6V0h3.6v8.1c1.4-2.4,4-3.7,6.7-3.6     c3.2,0,5.5,1,6.7,2.9c0.9,1.4,0.9,3.1,0.9,5.2v13.9h-3.6V13.4z"/>
			<path class="st1" d="M78.7,18.3c0,3.9,0.9,5.6,4.4,5.6c4.1,0,6.3-2.5,6.3-7.2V5.1H93v21.5h-3.5v-3.2c-1.5,2.5-3.9,3.7-7.1,3.7     c-3,0-5.3-1.1-6.5-2.9C75,22.8,75,21.1,75,19V5.1h3.7V18.3z"/>
			<path class="st1" d="M124.7,13.4c0-3.8-0.7-5.6-3.9-5.6c-3.5,0-5.5,2.2-5.5,6.2v12.7h-3.7V13.5c0-3.8-0.7-5.6-3.9-5.6     c-3.4,0-5.5,2.3-5.5,6.2v12.7h-3.6V5.3h3.5v3c1.4-2.3,4-3.7,6.7-3.6c2.5-0.1,4.8,1.2,5.9,3.4c1.6-2.2,4.2-3.5,6.9-3.4     c2.8,0,4.9,1.1,6,2.9c0.8,1.5,0.9,3.3,0.9,5.6v13.5h-3.6V13.4H124.7z"/>
			<path class="st1" d="M170.4,13.4c0-3.8-0.9-5.6-4.3-5.6c-4,0-6.4,2.3-6.4,6.6v12.2h-3.6V5.1h3.5v3.1c1.5-2.4,4.1-3.8,6.9-3.7     c3.2,0,5.5,1,6.7,2.9c0.9,1.4,0.9,3.1,0.9,5.2v13.9h-3.7V13.4z"/>
			<path class="st2" d="M179.6,0h3.5v8.1c1.5-2.4,4.1-3.8,6.9-3.7c5.6,0,9.4,4.4,9.4,11.5s-3.8,11.3-9.4,11.3     c-2.8,0.2-5.4-1.1-7-3.4v2.7h-3.5V0H179.6z M189.3,24.1c3.9,0,6.4-3,6.4-7.9c0-5.5-2.4-8.5-6.4-8.5c-4.2,0-6.4,2.7-6.4,8.1     S185.3,24.1,189.3,24.1z"/>
			<path class="st2" d="M220.5,11.1c0-4.6-2.6-6.7-8.4-6.7c-4.5,0-7.5,1.9-8.3,5.1l3.3,1c0.4-1.9,2.1-2.9,4.9-2.9     c3.2,0,4.8,1.1,4.8,3.3c0,1.4,0,1.9-1,2.3s-2.9,0.5-5.9,0.8c-4.9,0.6-7.4,2.8-7.4,6.7s2.5,6.5,7,6.5c2.9,0,5.7-1.3,7.6-3.5v2.9     h3.4L220.5,11.1z M216.8,18.9c0,3-2.7,5.2-6.7,5.2c-2.5,0-3.9-1.2-3.9-3.3s1.1-3.2,3.7-3.6s4.9-0.5,6.8-1.5L216.8,18.9     L216.8,18.9z"/>
			<path class="st2" d="M235.8,14.1l-3.5-0.8c-2.3-0.5-3.4-1.1-3.4-2.7c0-1.9,1.5-3,4.4-3c2.4,0,4.1,0.9,4.7,2.6l3.6-0.2     c-0.6-3.3-3.7-5.4-8.3-5.4c-5.1,0-8.1,2.5-8.1,6.2s1.8,5,6.1,6l4,1c2.2,0.5,3.3,1.1,3.3,2.9c0,2.1-1.8,3.4-5,3.4     c-2.9,0-4.7-1.2-5.3-3.4l-3.6,0.2c0.6,4.1,3.5,6.4,8.5,6.4c5.8,0,9-2.7,9-7.1C242.3,16.5,240.2,15.1,235.8,14.1z"/>
			<path class="st2" d="M261,19.9c-0.5,2.6-2.9,4.4-5.5,4.2c-3.8,0-6.1-2.5-6.2-7.1h15.5v-1.6c0-7-3.6-10.9-9.7-10.9     c-5.9,0-9.7,4.2-9.7,11.7c0,7,3.7,11.2,9.7,11.2c4.7,0,8.1-2.5,9.2-6.6L261,19.9z M255.3,7.7c3.7,0,5.8,2.2,5.8,6.3h-11.8     C249.6,9.8,251.7,7.7,255.3,7.7z"/>
			<path class="st1" d="M150.5,11.1c0-4.6-2.6-6.7-8.4-6.7c-4.5,0-7.5,1.9-8.3,5.1l3.3,1c0.4-1.9,2.1-2.9,4.9-2.9     c3.2,0,4.8,1.1,4.8,3.3c0,1.4,0,1.9-1,2.3s-2.9,0.5-5.9,0.8c-4.9,0.6-7.4,2.8-7.4,6.7s2.5,6.5,7,6.5c2.9,0,5.7-1.3,7.6-3.5v2.9     h3.4V11.1z M146.8,18.9c0,3-2.7,5.2-6.7,5.2c-2.5,0-3.9-1.2-3.9-3.3s1.1-3.2,3.7-3.6c2.6-0.4,4.9-0.5,6.8-1.5L146.8,18.9     L146.8,18.9z"/>
		</g>
	</g>
</g>
<g id="g3394" transform="translate(-236,-131)">
	<g id="g3396">
		<polygon id="polygon3398" class="st1" points="257.5,140.1 257.5,136.7 239.5,136.7 239.5,131 236,131 236,158.4 239.5,158.4     239.5,152.7 257.4,152.7 257.4,149.2 239.5,149.2 239.5,140.1   "/>
		<polygon id="polygon3400" class="st2" points="260.6,143 242.6,143 242.6,146.3 260.6,146.3 260.6,158.4 264.1,158.4 264.1,131     260.6,131   "/>
	</g>
</g>
</svg></a></svg></svg>